<svg xmlns="http://www.w3.org/2000/svg" width="40" height="40" viewBox="0 0 40 40"><g><g><g><path fill="#777776" d="M1.042.744C1.861.01 3.095.002 3.384.016L7.747.02c.603 0 1.066.526 1.066 1.072 0 .592-.505 1.093-1.066 1.098 0 0-3.296-.005-4.363-.005-.033 0-.475-.005-.778.278-.2.185-.353.55-.344.806.011.305.14.594.308.767.258.267.606.322.814.322h4.319c.797.027 1.102.71 1.086 1.084v4.336c0 .59-.485 1.083-1.086 1.083-.616 0-1.084-.521-1.084-1.059v-3s.015-.277-.276-.277l-2.959.006c-.38.006-1.655-.043-2.435-.828C.4 5.154-.004 4.468 0 3.269c.005-1.26.615-2.14 1.042-2.525"/></g><g><path fill="#777776" d="M11.329.744c.817-.734 2.05-.742 2.342-.728l4.362.004c.602 0 1.065.526 1.065 1.072 0 .592-.505 1.093-1.065 1.098 0 0-3.297-.005-4.362-.005-.036 0-.476-.005-.78.278-.199.185-.354.55-.343.806.01.305.141.594.307.767.258.267.607.322.816.322h4.317a1.09 1.09 0 0 1 1.085 1.084v4.336c0 .59-.484 1.083-1.085 1.083-.614 0-1.083-.521-1.083-1.059v-3s.015-.277-.278-.277l-2.956.006c-.382.006-1.657-.043-2.436-.828-.55-.549-.954-1.235-.948-2.434.004-1.26.613-2.14 1.042-2.525"/></g><g><path fill="#777776" d="M18.056 18.305c-.818.734-2.053.741-2.341.727l-4.365-.004c-.603 0-1.063-.525-1.063-1.071 0-.592.504-1.094 1.063-1.098l4.365.004c.032 0 .474.005.777-.278.2-.185.354-.55.345-.805a1.215 1.215 0 0 0-.308-.768c-.258-.267-.606-.321-.814-.321h-4.319a1.094 1.094 0 0 1-1.087-1.084V9.27c0-.592.485-1.084 1.087-1.084.615 0 1.084.522 1.084 1.06v3s-.015.276.277.276l2.958-.006c.38-.006 1.655.043 2.435.829.548.548.952 1.234.948 2.434-.005 1.259-.615 2.14-1.042 2.525"/></g><g><path fill="#777776" d="M7.77 18.305c-.817.734-2.051.741-2.341.727l-4.363-.004C.463 19.028 0 18.503 0 17.957c0-.592.505-1.094 1.066-1.098l4.363.004c.033 0 .474.005.779-.278.198-.185.353-.55.342-.805a1.21 1.21 0 0 0-.307-.768c-.257-.267-.606-.321-.814-.321H1.11a1.092 1.092 0 0 1-1.085-1.084V9.27c0-.592.485-1.084 1.085-1.084.615 0 1.083.522 1.083 1.06v3s-.014.276.278.276l2.958-.006c.381-.006 1.656.043 2.436.829.548.548.953 1.234.948 2.434-.006 1.259-.614 2.14-1.044 2.525"/></g><g><path fill="#777776" d="M38.596.73c-.819-.734-2.053-.74-2.341-.727L31.89.007c-.603 0-1.064.526-1.064 1.071 0 .593.504 1.094 1.064 1.098l4.364-.004c.032 0 .475-.005.778.278.2.185.353.55.344.805a1.205 1.205 0 0 1-.309.768c-.257.267-.605.322-.813.322h-4.319a1.094 1.094 0 0 0-1.087 1.084v4.336c0 .59.486 1.083 1.087 1.083.615 0 1.084-.522 1.084-1.06v-3s-.015-.276.276-.276l2.959.007c.38.004 1.654-.044 2.435-.83.548-.548.953-1.234.949-2.434-.006-1.258-.616-2.14-1.043-2.524"/></g><g><path fill="#777776" d="M28.31.73c-.818-.734-2.051-.74-2.343-.727l-4.362.004c-.602 0-1.065.526-1.065 1.071 0 .593.505 1.094 1.065 1.098l4.362-.004c.034 0 .476-.005.78.278.199.185.354.55.343.805-.01.306-.141.594-.307.768-.258.267-.607.322-.816.322H21.65a1.09 1.09 0 0 0-1.084 1.084v4.336c0 .59.484 1.083 1.084 1.083.615 0 1.084-.522 1.084-1.06v-3s-.015-.276.276-.276l2.958.007c.382.004 1.657-.044 2.436-.83.55-.548.954-1.234.948-2.434-.004-1.258-.613-2.14-1.042-2.524"/></g><g><path fill="#777776" d="M21.582 18.291c.818.735 2.053.742 2.341.728l4.364-.004c.602 0 1.064-.525 1.064-1.071 0-.592-.504-1.094-1.064-1.098l-4.364.004c-.032 0-.474.005-.777-.277-.2-.186-.355-.551-.345-.806.012-.305.142-.594.308-.768.258-.267.606-.322.814-.322h4.318a1.092 1.092 0 0 0 1.087-1.084V9.257c0-.59-.484-1.084-1.087-1.084-.614 0-1.083.523-1.083 1.06v3.001s.016.276-.277.276l-2.958-.006c-.38-.005-1.655.043-2.435.829-.549.548-.952 1.234-.948 2.434.005 1.258.614 2.14 1.042 2.524"/></g><g><path fill="#777776" d="M31.863 18.291c.816.735 2.05.742 2.341.728l4.362-.004c.603 0 1.066-.525 1.066-1.071 0-.592-.506-1.094-1.066-1.098l-4.362.004c-.035 0-.475.005-.78-.277-.198-.186-.353-.551-.343-.806.011-.305.142-.594.308-.768.258-.267.606-.322.815-.322h4.318a1.092 1.092 0 0 0 1.085-1.084V9.257a1.09 1.09 0 0 0-1.085-1.084c-.615 0-1.084.523-1.084 1.06v3.001s.016.276-.277.276l-2.957-.006c-.382-.005-1.657.043-2.437.829-.548.548-.952 1.234-.947 2.434.005 1.258.613 2.14 1.043 2.524"/></g><g><path fill="#777776" d="M1.069 38.852c.818.733 2.053.74 2.342.726l4.363-.003c.603 0 1.065-.526 1.065-1.072 0-.592-.504-1.093-1.065-1.097l-4.363.004c-.033 0-.476.004-.778-.279-.201-.184-.354-.55-.344-.806.011-.304.14-.593.308-.766.258-.267.606-.322.814-.322h4.318a1.093 1.093 0 0 0 1.086-1.083v-4.337c0-.591-.484-1.084-1.086-1.084-.615 0-1.083.522-1.083 1.06v3s.015.276-.277.276l-2.958-.005c-.381-.007-1.654.043-2.436.828-.548.548-.952 1.235-.948 2.433.006 1.26.616 2.141 1.042 2.527"/></g><g><path fill="#777776" d="M11.355 38.852c.818.733 2.051.74 2.342.726l4.362-.003c.603 0 1.066-.526 1.066-1.072 0-.592-.506-1.093-1.066-1.097l-4.362.004c-.034 0-.476.004-.78-.279-.198-.184-.353-.55-.342-.806.01-.304.141-.593.307-.766.257-.267.607-.322.815-.322h4.318a1.09 1.09 0 0 0 1.085-1.083v-4.337c0-.591-.485-1.084-1.085-1.084-.615 0-1.084.522-1.084 1.06v3s.016.276-.276.276l-2.958-.005c-.382-.007-1.656.043-2.436.828-.55.548-.953 1.235-.948 2.433.006 1.26.614 2.141 1.042 2.527"/></g><g><path fill="#777776" d="M18.083 21.29c-.818-.734-2.052-.741-2.342-.727l-4.364.004c-.602 0-1.064.525-1.064 1.071 0 .592.504 1.094 1.064 1.098l4.364-.004c.033 0 .475-.005.778.278.2.184.353.55.344.805a1.21 1.21 0 0 1-.308.767c-.258.268-.606.323-.814.323h-4.318a1.093 1.093 0 0 0-1.087 1.083v4.336c0 .59.485 1.084 1.087 1.084.615 0 1.084-.522 1.084-1.06v-3s-.016-.276.276-.276l2.958.006c.381.005 1.656-.043 2.436-.83.548-.547.952-1.233.948-2.433-.005-1.259-.615-2.14-1.042-2.525"/></g><g><path fill="#777776" d="M7.796 21.29c-.816-.734-2.05-.741-2.34-.727l-4.363.004c-.603 0-1.066.525-1.066 1.071 0 .592.505 1.094 1.066 1.098l4.362-.004c.034 0 .476-.005.779.278.199.184.354.55.343.805-.01.305-.142.594-.307.767-.257.268-.607.323-.815.323H1.137A1.092 1.092 0 0 0 .05 25.988v4.336c0 .59.486 1.084 1.086 1.084.614 0 1.083-.522 1.083-1.06v-3s-.015-.276.277-.276l2.958.006c.382.005 1.656-.043 2.436-.83.549-.547.954-1.233.948-2.433-.006-1.259-.614-2.14-1.043-2.525"/></g><g><path fill="#777776" d="M38.623 38.864c-.818.735-2.053.742-2.341.728l-4.365-.004c-.602 0-1.064-.525-1.064-1.071 0-.592.504-1.093 1.064-1.098 0 0 3.297.005 4.365.005.033 0 .475.004.777-.279.201-.184.354-.55.344-.806a1.2 1.2 0 0 0-.308-.766c-.258-.268-.606-.322-.813-.322h-4.32a1.095 1.095 0 0 1-1.086-1.085V29.83c0-.59.485-1.083 1.087-1.083.615 0 1.084.522 1.084 1.06v3s-.015.276.276.276l2.959-.006c.38-.006 1.655.044 2.435.829.548.548.952 1.234.948 2.433-.005 1.26-.615 2.141-1.042 2.525"/></g><g><path fill="#777776" d="M28.336 38.864c-.817.735-2.05.742-2.341.728l-4.363-.004c-.602 0-1.065-.525-1.065-1.071 0-.592.504-1.093 1.065-1.098 0 0 3.297.005 4.363.005.034 0 .475.004.779-.279.199-.184.353-.55.343-.806a1.208 1.208 0 0 0-.307-.766c-.258-.268-.607-.322-.815-.322h-4.318a1.091 1.091 0 0 1-1.086-1.085V29.83c0-.59.485-1.083 1.086-1.083.614 0 1.083.522 1.083 1.06v3s-.015.276.277.276l2.958-.006c.381-.006 1.656.044 2.436.829.549.548.953 1.234.948 2.433-.006 1.26-.614 2.141-1.043 2.525"/></g><g><path fill="#777776" d="M21.609 21.303c.818-.734 2.052-.74 2.342-.727l4.363.005c.603 0 1.065.524 1.065 1.07 0 .592-.505 1.094-1.065 1.098l-4.363-.004c-.033 0-.476-.005-.778.278-.201.185-.354.55-.345.806.012.304.141.594.309.767.258.267.605.321.814.321h4.318a1.092 1.092 0 0 1 1.086 1.084v4.336c0 .592-.484 1.084-1.086 1.084-.616 0-1.084-.522-1.084-1.06v-3s.016-.276-.276-.276l-2.958.006c-.382.006-1.656-.042-2.437-.829-.547-.547-.951-1.235-.947-2.433.004-1.26.614-2.14 1.042-2.526"/></g><g><path fill="#777776" d="M31.896 21.303c.817-.734 2.05-.74 2.341-.727l4.362.005c.604 0 1.066.524 1.066 1.07 0 .592-.506 1.094-1.066 1.098l-4.362-.004c-.034 0-.475-.005-.779.278-.199.185-.354.55-.343.806.01.304.142.594.308.767.257.267.606.321.814.321h4.318a1.092 1.092 0 0 1 1.086 1.084v4.336c0 .592-.486 1.084-1.086 1.084-.614 0-1.084-.522-1.084-1.06v-3s.016-.276-.276-.276l-2.958.006c-.382.006-1.656-.042-2.436-.829-.549-.547-.954-1.235-.948-2.433.006-1.26.614-2.14 1.043-2.526"/></g></g></g></svg>