<?xml version="1.0" encoding="UTF-8"?>
<svg width="64px" height="64px" viewBox="0 0 64 64" version="1.1" xmlns="http://www.w3.org/2000/svg" xmlns:xlink="http://www.w3.org/1999/xlink">
    <!-- Generator: Sketch 59.1 (86144) - https://sketch.com -->
    <title>_icn / 64x64 / pdf</title>
    <desc>Created with Sketch.</desc>
    <g id="_icn-/-64x64-/-pdf" stroke="none" stroke-width="1" fill="none" fill-rule="evenodd">
        <polygon id="Bounds" points="0 0 64 0 64 64 0 64"></polygon>
        <rect id="Rectangle-Copy-5" fill="#F77D80" x="10" y="3" width="38" height="54"></rect>
        <polygon id="Rectangle-Copy-6" fill="#FFFFFF" points="16 7 42 7 54 19 54 61 16 61"></polygon>
        <path d="M55,18.5857864 L55,62 L15,62 L15,6 L42.4142136,6 L55,18.5857864 Z M41.5857864,8 L17,8 L17,60 L53,60 L53,19.4142136 L41.5857864,8 Z" id="Rectangle-Copy-4" fill="#9E0A0E" fill-rule="nonzero"></path>
        <path d="M32,33 L32,51 L4.55699953,51 L7.93199953,42 L4.55699953,33 L32,33 Z" id="Combined-Shape" fill="#9E0A0E" fill-rule="nonzero"></path>
        <polygon id="Path" fill="#9E0A0E" fill-rule="nonzero" points="43 18 43 7 41 7 41 20 54 20 54 18"></polygon>
        <path d="M12.656,45 L12.656,39.416 L15.168,39.416 C15.4240013,39.416 15.6546656,39.4573329 15.86,39.54 C16.0653344,39.6226671 16.2399993,39.7399992 16.384,39.892 C16.5280007,40.0440008 16.637333,40.2266656 16.712,40.44 C16.786667,40.6533344 16.824,40.8879987 16.824,41.144 C16.824,41.4053346 16.786667,41.6413323 16.712,41.852 C16.637333,42.0626677 16.5280007,42.2439992 16.384,42.396 C16.2399993,42.5480008 16.0653344,42.6653329 15.86,42.748 C15.6546656,42.8306671 15.4240013,42.872 15.168,42.872 L13.712,42.872 L13.712,45 L12.656,45 Z M13.712,41.96 L15.072,41.96 C15.2746677,41.96 15.4346661,41.9053339 15.552,41.796 C15.6693339,41.6866661 15.728,41.5306677 15.728,41.328 L15.728,40.96 C15.728,40.7573323 15.6693339,40.6026672 15.552,40.496 C15.4346661,40.3893328 15.2746677,40.336 15.072,40.336 L13.712,40.336 L13.712,41.96 Z M17.904,39.416 L19.936,39.416 C20.2986685,39.416 20.6279985,39.4746661 20.924,39.592 C21.2200015,39.7093339 21.4733323,39.8839988 21.684,40.116 C21.8946677,40.3480012 22.0573328,40.6386649 22.172,40.988 C22.2866672,41.3373351 22.344,41.7439977 22.344,42.208 C22.344,42.6720023 22.2866672,43.0786649 22.172,43.428 C22.0573328,43.7773351 21.8946677,44.0679988 21.684,44.3 C21.4733323,44.5320012 21.2200015,44.7066661 20.924,44.824 C20.6279985,44.9413339 20.2986685,45 19.936,45 L17.904,45 L17.904,39.416 Z M19.936,44.064 C20.3306686,44.064 20.6439988,43.9480012 20.876,43.716 C21.1080012,43.4839988 21.224,43.1280024 21.224,42.648 L21.224,41.768 C21.224,41.2879976 21.1080012,40.9320012 20.876,40.7 C20.6439988,40.4679988 20.3306686,40.352 19.936,40.352 L18.96,40.352 L18.96,44.064 L19.936,44.064 Z M23.536,45 L23.536,39.416 L27.128,39.416 L27.128,40.352 L24.592,40.352 L24.592,41.704 L26.8,41.704 L26.8,42.64 L24.592,42.64 L24.592,45 L23.536,45 Z" id="PDF" fill="#FFFFFF" fill-rule="nonzero"></path>
    </g>
</svg>