<svg xmlns="http://www.w3.org/2000/svg" width="64" height="54" viewBox="0 0 64 54"><g><g><path fill="#fff" d="M1 13h62v40H1z"/><path fill="none" stroke="#9e0a0e" stroke-miterlimit="50" stroke-width="2" d="M1 13v0h62v40H1v0z"/></g><g><path fill="#fff" d="M62 52L32 28 2 52"/><path fill="#9e0a0e" fill-opacity=".2" d="M62 52L32 28 2 52"/><path fill="none" stroke="#9e0a0e" stroke-miterlimit="50" stroke-width="2" d="M62 52v0L32 28v0L2 52v0"/></g><g><path fill="#fff" d="M62 14.33l-30 24-30-24"/><path fill="none" stroke="#9e0a0e" stroke-miterlimit="50" stroke-width="2" d="M62 14.33v0l-30 24v0l-30-24v0"/></g><g><path fill="#fff" d="M33.33 25c6.627 0 12-5.373 12-12s-5.373-12-12-12-12 5.373-12 12 5.373 12 12 12z"/><path fill="#9e0a0e" fill-opacity=".2" d="M33.33 25c6.627 0 12-5.373 12-12s-5.373-12-12-12-12 5.373-12 12 5.373 12 12 12z"/></g><g><path fill="#fff" d="M32 25c6.627 0 12-5.373 12-12S38.627 1 32 1 20 6.373 20 13s5.373 12 12 12z"/><path fill="#9e0a0e" fill-opacity=".2" d="M32 25c6.627 0 12-5.373 12-12S38.627 1 32 1 20 6.373 20 13s5.373 12 12 12z"/><path fill="none" stroke="#9e0a0e" stroke-miterlimit="50" stroke-width="2" d="M32 25c6.627 0 12-5.373 12-12S38.627 1 32 1 20 6.373 20 13s5.373 12 12 12z"/></g><g><path fill="none" stroke="#9e0a0e" stroke-miterlimit="50" stroke-width="2" d="M27.67 13.003v0l3.03 2.667v0l7.637-8v0"/></g></g></svg>