<svg xmlns="http://www.w3.org/2000/svg" width="78" height="59" viewBox="0 0 78 59"><g><g><g><path fill="#fff" d="M60.466 41.283c-.961 0-1.739.413-2.334 1.24s-.893 2.174-.895 4.041c0 2.028.305 3.43.915 4.206.61.775 1.367 1.163 2.27 1.163a2.73 2.73 0 0 0 1.664-.528c.476-.353.856-.913 1.14-1.678.284-.765.426-1.771.426-3.017 0-1.358-.133-2.418-.398-3.181-.266-.763-.644-1.329-1.135-1.696a2.68 2.68 0 0 0-1.646-.552zm-.12-.591a4.789 4.789 0 0 1 2.59.755 5.167 5.167 0 0 1 1.89 2.104c.47.944.706 1.985.693 3.037a6.723 6.723 0 0 1-.686 3.056 5.294 5.294 0 0 1-1.888 2.13 4.68 4.68 0 0 1-2.546.76 4.447 4.447 0 0 1-2.466-.74 5.297 5.297 0 0 1-1.86-2.135 6.749 6.749 0 0 1-.7-3.082 6.606 6.606 0 0 1 .676-3.015 5.28 5.28 0 0 1 1.86-2.107 4.437 4.437 0 0 1 2.445-.761zm-16.938.235v.002h-.007zm4.984.002v.575H47.33a.71.71 0 0 0-.525.185.633.633 0 0 0-.186.468v5.253l4.116-4.55c.207-.197.333-.464.355-.749a.508.508 0 0 0-.244-.436 1.434 1.434 0 0 0-.795-.167h-.304v-.575h4.482v.575h-.347a2.2 2.2 0 0 0-.988.274 3.643 3.643 0 0 0-.999.766l-2.52 2.74 3.632 5.525c.157.265.372.49.63.66.232.135.498.203.767.196h.398v.576h-4.936v-.576h.558c.276.02.554-.016.815-.107a.313.313 0 0 0 .204-.268.542.542 0 0 0-.09-.29l-2.995-4.587-1.72 1.902v2.775a.474.474 0 0 0 .149.385c.159.124.356.189.558.185h1.063v.575h-4.999v-.575h.962c.195.015.39-.04.547-.157a.519.519 0 0 0 .176-.411v-9.027a.488.488 0 0 0-.199-.419 1.158 1.158 0 0 0-.673-.148h-.813v-.573zm-15.218-.004v.004h-.002zm5.059.004v.575h-1.21a.533.533 0 0 0-.427.158.737.737 0 0 0-.136.494v8.923a.554.554 0 0 0 .175.457c.116.089.348.133.7.133h1.538a2.61 2.61 0 0 0 2.004-.845c.52-.561.898-1.539 1.135-2.933h.517l-.253 4.354h-9.098v-.576h.895a.91.91 0 0 0 .643-.185.774.774 0 0 0 .186-.577v-8.831a.553.553 0 0 0-.156-.43.646.646 0 0 0-.456-.145h-1.116v-.572zm-11.379 1.944l-1.961 5.047h3.863zm.204-2.183h.498l3.92 10.37a.93.93 0 0 0 .97.628h.34v.576h-4.36v-.576h.348c.328.022.657-.03.962-.154a.355.355 0 0 0 .186-.33.8.8 0 0 0-.052-.273l-.902-2.408h-4.315l-.51 1.378c-.112.278-.18.573-.199.872a.803.803 0 0 0 .335.643c.287.198.632.293.98.268h.372v.576H21.67v-.576c.358.02.712-.08 1.004-.287.248-.19.475-.555.68-1.09l3.706-9.613z"/></g><g><path fill="#ed1c24" d="M49.117 22.199c-.089.135-.18.27-.271.403h-.234zm1.378 9.7l2.626-.249-.947-.974-1.679 1.22zm-17.05.368h.6l-1.314-1.21zm-16.998 4.146l.558.887 1.096-.64-1.648-.249zM0 40.29c4.463-1.165 8.369-2.57 12.138-3.965l.454.828.962-.607-1.363-.23c1.186-.439 2.363-.878 3.533-1.307l1.386-.413-.013-.09a86.32 86.32 0 0 1 10.042-3.014 39.235 39.235 0 0 1-3.63 2.174c5.021-1.952 8.326-2.483 9.585-3.016l-.93-.091a68.923 68.923 0 0 1 9.444-.693c-1.07.608-2.064.937-2.912.942 6.61 1.337 12.858-.413 12.685.082.137-.168.27-.337.401-.505a132.8 132.8 0 0 1 8.845 1.22c1.391.917 3.301 1.6 6.1 2.285a7.884 7.884 0 0 1-3.018-1.737c2.48.415 5.043.63 5.655.582 1.488-.119 3.564 2.268 3.197 1.63-.415-.732 4.811-.247 3.656-.699-2.045-.802-3.04-2.952.687-1.63 1.393.498-.872-3.875 1.324-2.708l-4.932-2.88c.31-.926.586-1.878.86-2.82.077-.27.324-.603.222-.91a1.02 1.02 0 0 1 .205-1.111c.28-.317-.114-.21-.06-.635.049-.306.363-1.017.394-1.328.335-3.054.186-6.172.253-9.237a32.715 32.715 0 0 1-.816 3.828c-.032.133.145.446.113.585-.048.268-.312.37-.4.58-.085.248-.247.355-.357.596a11.8 11.8 0 0 1-.48.957c-.22.393-.777.678-.743.974.054.413.13.698-.303.797-.238.053-.151.555-.372.66-.346.156-.426.775-.335 1.071.091.296-.534.043-.638.333-.108.34-.186.673-.67.802-.269.081-.504.248-.669.474-.125.186-.033.506-.167.63-.276.237-.627.215-.93.424-.395.27-.81.51-1.24.719A100.391 100.391 0 0 0 55.92 22.65c2.194-6.919.472-13.824-2.505-21.2.482 1.464.752 2.994.798 4.543.017.306.017.613 0 .913-.017.3-.119.618-.054.926.124.5.058 1.027-.186 1.481-.199.382-.247 1.06-.275 1.537-.034.532.199.952 0 1.376-.186.393-.186 1.07-.238 1.608-.032.333-.588.333-.616.703-.028.704-.119.763-.573 1.232-.102.102-.185.963-.442 1.537-.186.37-.573.71-.534 1.111a.74.74 0 0 1-.372.732c-.173.112.21.555.102.74-.119.226-.658.274-.782.495-.103.172-.205.339-.302.51a21.07 21.07 0 0 1-.507.814l-1.587-1.222c.785.707.84 1.418.415 2.131a81.015 81.015 0 0 0-13.83 1.713c.51-8.111-1.502-16.098-3.875-18.83.988 1.882 1.388 4.21 1.345 6.69 0 .155-.088.468-.102.688-.012.263.048.458.042.645-.028.37-.124.435-.161.813-.034.333.133.714.037 1.042-.145.528.022.624.037.689.06.185-.357.361-.346.556.011.451-.017.751-.13.983a2.91 2.91 0 0 0-.275.91c-.042.254-.17.488-.363.66-.186.085.085.398.033.597-.09.322-.173.78-.264 1.09-.108.345-.318.537-.351.876-.015.288-.15.556-.372.741-.167.124.033.457-.037.639-.108.283-.274.467-.382.728a9.166 9.166 0 0 0-.223-1.228c.077.54.096 1.087.056 1.631l-.033.084c-.186.446-.385.881-.582 1.296a1.442 1.442 0 0 1-.259.145l.22-.062-.077.161a82.782 82.782 0 0 0-12.722 5c-.575-.963-1.21-1.905-1.704-2.963-.108-.209-.49-.242-.729-.516-.186-.185-.186-.645-.394-.802-.253-.185-.46-.185-.68-.398-.244-.248-.341-.556-.585-.785-.186-.186-.372-.356-.558-.528-1.077-1.004-2.207-2-3.311-3.035.728.924 1.258 2.001 1.987 2.927.166.208.26.462.27.726.026.28-.076.526 0 .802s.513.447.558.695c.045.248-.08.596 0 .855.143.424.192.873.145 1.317-.034.328.296.833.301 1.15 0 .392-.346.381-.286.74.051.367.018.74-.097 1.091-.26.619-.493 1.224-.712 1.795C6.267 36.04 2.996 38.205 0 40.289zm38.696-9.482a22.183 22.183 0 0 1-1.241-.288c.363.197.78.29 1.24.288zm39.532-1.48l.275.16a4.302 4.302 0 0 0-.275-.16zM53.415 1.449a16.052 16.052 0 0 0-.946-2.269c.326.762.642 1.518.946 2.27zM28.227 25.775l-.374.105c.13-.018.255-.054.374-.105zm-20.54-3.928a5.774 5.774 0 0 0-1.247-1.202c.409.408.826.808 1.247 1.202z"/></g><g><path fill="#fff" d="M60.97 54.946h.172a.53.53 0 0 1 .447.246v2.689a.782.782 0 0 1-.157.503.477.477 0 0 1-.388.197h-.108v.259H62.5v-.26h-.065a.542.542 0 0 1-.413-.184.812.812 0 0 1-.167-.567v-2.267l2.39 3.272h.296v-3.233a.708.708 0 0 1 .128-.461.61.61 0 0 1 .423-.185v-.26h-1.414v.26c.164 0 .32.068.433.185a.67.67 0 0 1 .152.457v1.93l-2.097-2.84h-1.202zm-5.29-.369l-.22.423a1.75 1.75 0 0 0-.497-.329 1.43 1.43 0 0 0-.532-.094 1.766 1.766 0 0 0-1.363.617 2.276 2.276 0 0 0-.558 1.584c-.011.386.07.77.236 1.12a1.802 1.802 0 0 0 1.63 1.006c.242.006.48-.052.69-.168.215-.13.391-.313.514-.53l.327.694h.205v-1.522a.202.202 0 0 1 .056-.153.256.256 0 0 1 .186-.054h.236v-.255h-1.88v.264h.407a.2.2 0 0 1 .149.052.213.213 0 0 1 .05.155v.37a.904.904 0 0 1-.229.646.825.825 0 0 1-.632.244.852.852 0 0 1-.543-.185 1.107 1.107 0 0 1-.352-.569 4.358 4.358 0 0 1-.115-1.17 3.507 3.507 0 0 1 .14-1.108c.067-.23.2-.438.385-.595a.865.865 0 0 1 .543-.184c.273.005.53.124.71.329.257.307.43.675.506 1.067h.234l-.095-1.651h-.186zm-9.68.11v.259h.347a.261.261 0 0 1 .186.055c.043.047.065.11.06.174v3.174a.207.207 0 0 1-.066.165.34.34 0 0 1-.221.056h-.303v.259h1.99v-.26h-.32a.306.306 0 0 1-.205-.06.203.203 0 0 1-.054-.162v-3.209a.185.185 0 0 1 .052-.144.239.239 0 0 1 .168-.048h.358v-.26zm-5.168.307a1.555 1.555 0 0 0-1.052-.423c-.354-.016-.7.113-.954.358-.241.247-.37.582-.355.926-.007.198.037.394.128.57.095.166.234.302.402.395.29.146.598.25.916.313.203.04.403.094.6.159.129.048.242.132.325.242.072.11.108.24.104.37a.678.678 0 0 1-.24.529.975.975 0 0 1-.67.21c-.701 0-1.167-.438-1.396-1.314h-.229v1.537h.186l.307-.41c.3.289.7.45 1.116.453a1.57 1.57 0 0 0 1.106-.413 1.245 1.245 0 0 0-.312-1.997 4.339 4.339 0 0 0-.78-.226 3.06 3.06 0 0 1-.674-.207.676.676 0 0 1-.28-.239.57.57 0 0 1-.087-.307.641.641 0 0 1 .22-.487.804.804 0 0 1 .569-.202c.278.003.544.114.744.307.255.256.436.576.522.926h.236l-.024-1.431h-.186l-.243.37zm-10.611-.308v.26h.307a.373.373 0 0 1 .221.048.185.185 0 0 1 .061.148v3.187a.242.242 0 0 1-.061.174.237.237 0 0 1-.186.065h-.35v.259h3.534l.058-1.578h-.237c-.015.36-.145.707-.372.99a1.021 1.021 0 0 1-.784.327h-.467a.403.403 0 0 1-.242-.061.172.172 0 0 1-.056-.145v-1.533h.15a.658.658 0 0 1 .522.196c.137.198.206.436.197.676h.236v-1.91h-.236a1.02 1.02 0 0 1-.203.614.619.619 0 0 1-.483.185h-.186V55.14a.185.185 0 0 1 .055-.144c.053-.041.12-.06.186-.052h.53c.18-.008.359.03.52.11.137.08.249.198.32.34.107.235.175.485.204.74h.23l-.076-1.448zm-6.872 3.893a.218.218 0 0 1-.172-.061.305.305 0 0 1-.055-.202v-3.137a.199.199 0 0 1 .068-.172.706.706 0 0 1 .333-.048c.256-.017.512.041.737.166.187.14.326.334.396.556.113.367.162.751.146 1.135.016.35-.026.7-.125 1.037-.153.44-.576.732-1.046.722zm-1.629-3.893v.26h.292a.315.315 0 0 1 .214.057c.047.05.07.117.063.185v3.137a.28.28 0 0 1-.06.185.226.226 0 0 1-.185.069h-.324v.26h2.157c.338 0 .668-.095.954-.273.29-.174.521-.427.668-.73a2.44 2.44 0 0 0 .223-1.077 2.325 2.325 0 0 0-.243-1.075 1.779 1.779 0 0 0-.676-.74 1.909 1.909 0 0 0-1-.258z"/></g></g></g></svg>