<svg xmlns="http://www.w3.org/2000/svg" width="327" height="70" viewBox="0 0 327 70"><g><g><g><g><path fill="#fff" d="M.09.79h17.985c4.166 0 7.86.77 11.084 2.313 3.224 1.542 5.724 3.729 7.499 6.562 1.775 2.833 2.662 6.15 2.662 9.95 0 3.801-.887 7.118-2.662 9.95-1.775 2.834-4.275 5.02-7.499 6.563-3.223 1.542-6.918 2.313-11.084 2.313H.09zm17.55 29.152c3.26 0 5.868-.914 7.825-2.743 1.992-1.828 2.988-4.356 2.988-7.584 0-3.227-.996-5.755-2.988-7.584-1.957-1.828-4.565-2.743-7.825-2.743h-6.792v20.654z"/></g><g><path fill="#fff" d="M47.16 38.44h10.758V.79H47.16z"/></g><g><path fill="#fff" d="M94.254 22.86h8.484v15.574c-2.644 0-6.705-.024-9.51 0-3.13.026-3.637 0-6.461 0-3.985 0-7.575-.072-10.762-1.721-3.188-1.686-5.687-4.017-7.498-6.993-1.812-2.976-2.717-6.347-2.717-10.112 0-3.765.905-7.136 2.717-10.112 1.81-2.976 4.329-5.288 7.552-6.938C79.283.873 82.924.03 86.981.03c3.549 0 6.737.592 9.563 1.775 2.825 1.183 5.18 2.887 7.063 5.11l-6.846 6.131c-2.572-2.797-5.651-4.195-9.237-4.195-3.26 0-5.886.986-7.879 2.958-1.992 1.937-2.988 4.536-2.988 7.8 0 2.08.453 3.944 1.358 5.593a9.934 9.934 0 0 0 3.803 3.819c1.631.897 3.496 1.345 5.597 1.345h6.839z"/></g><g><path fill="#fff" d="M111.73 38.44h10.758V.79H111.73z"/></g><g><path fill="#fff" d="M166.65 38.44l-.11-19.955-9.78 16.244h-4.78l-9.727-15.706v19.418h-9.943V.79h8.856l13.367 21.73L167.573.79h8.857l.109 37.65z"/></g><g><path fill="#fff" d="M211.817 31.126h-16.083l-2.988 7.315H181.77L198.56.79h10.595l16.844 37.651h-11.193zm-3.147-7.853l-4.894-12.048-4.894 12.048z"/></g><g><path fill="#fff" d="M237.402 9.235H225.72V.79h34.068v8.445h-11.627V38.44h-10.759z"/></g><g><path fill="#fff" d="M268.02 38.44h10.758V.79H268.02z"/></g><g><path fill="#fff" d="M313.648 38.44L305.77 26.77 298 38.441h-12.28l13.856-19.04L286.318.79h12.116l7.607 10.864L313.54.79h11.627L311.91 18.97l14.128 19.47z"/></g></g><g><g><path fill="#fff" d="M214.173 63.93h-3.99l-.904 2.457H207.7l3.573-9.377h1.837l3.575 9.377h-1.622zm-.47-1.233l-1.087-3.016-.43-1.352h-.042l-.4 1.324-1.117 3.044z"/></g><g><path fill="#fff" d="M238.258 61.544v4.845h-1.134l-.043-1.193a2.79 2.79 0 0 1-1.148.994c-.488.228-1.072.341-1.751.341-.88 0-1.65-.194-2.31-.582a3.939 3.939 0 0 1-1.537-1.663c-.363-.729-.545-1.59-.545-2.585 0-.985.187-1.838.56-2.557.373-.73.9-1.29 1.579-1.677.68-.398 1.469-.597 2.368-.597.976 0 1.78.18 2.412.54.63.36 1.129.919 1.492 1.676l-1.406.669c-.183-.512-.489-.9-.919-1.166-.431-.265-.948-.397-1.55-.397-.9 0-1.612.307-2.14.923-.526.615-.788 1.477-.788 2.586 0 1.127.249 1.998.746 2.614.507.606 1.244.91 2.21.91.756 0 1.368-.185 1.837-.555.47-.369.704-.905.704-1.605v-.27h-2.9v-1.25z"/></g><g><path fill="#fff" d="M260.072 65.08v1.307h-7.062V57.01h6.86v1.307h-5.324v2.7h4.162v1.278h-4.162v2.785z"/></g><g><path fill="#fff" d="M282.205 66.387h-1.823l-3.66-5.91-.918-1.734h-.015l.058 1.591v6.053h-1.407V57.01h1.808l3.646 5.896.933 1.747h.014l-.057-1.591V57.01h1.42z"/></g><g><path fill="#fff" d="M305.162 63.903c-.287.843-.78 1.491-1.478 1.946-.69.454-1.502.682-2.44.682-.91 0-1.699-.194-2.369-.582a3.893 3.893 0 0 1-1.55-1.677c-.364-.729-.545-1.586-.545-2.571 0-.985.181-1.843.546-2.572.363-.73.88-1.288 1.55-1.676.67-.39 1.454-.583 2.353-.583.948 0 1.742.194 2.383.583.65.388 1.12.961 1.407 1.719l-1.45.639c-.191-.559-.469-.966-.832-1.222-.364-.265-.838-.398-1.422-.398-.889 0-1.602.312-2.138.938-.526.616-.79 1.473-.79 2.572 0 1.108.254 1.97.762 2.585.507.616 1.21.924 2.11.924.611 0 1.123-.152 1.535-.455.42-.303.722-.748.905-1.335z"/></g><g><path fill="#fff" d="M322.928 62.793v3.594h-1.535v-3.594l-3.373-5.783h1.708l1.694 3.012.746 1.407.746-1.407 1.679-3.012h1.722z"/></g><g><path fill="#fff" d="M60.844 57.01c1.492 0 2.65.407 3.473 1.222.823.814 1.235 1.97 1.235 3.467 0 1.496-.412 2.652-1.235 3.467-.822.814-1.98 1.221-3.473 1.221H57.5V57.01zm-.003 8.084c.992 0 1.756-.294 2.29-.88.534-.597.801-1.435.801-2.515s-.267-1.914-.802-2.501c-.533-.597-1.297-.895-2.289-.895h-1.803v6.791z"/></g><g><path fill="#fff" d="M80.14 66.387h1.536V57.01H80.14z"/></g><g><path fill="#fff" d="M104.719 61.544v4.845h-1.134l-.043-1.193a2.79 2.79 0 0 1-1.149.994c-.488.228-1.071.341-1.75.341-.88 0-1.651-.194-2.311-.582a3.939 3.939 0 0 1-1.536-1.663c-.364-.729-.546-1.59-.546-2.585 0-.985.187-1.838.56-2.557.373-.73.9-1.29 1.579-1.677.68-.398 1.469-.597 2.368-.597.976 0 1.78.18 2.412.54.631.36 1.129.919 1.492 1.676l-1.406.669c-.182-.512-.489-.9-.919-1.166-.43-.265-.947-.397-1.55-.397-.9 0-1.612.307-2.14.923-.525.615-.788 1.477-.788 2.586 0 1.127.249 1.998.746 2.614.507.606 1.244.91 2.21.91.756 0 1.369-.185 1.838-.555.469-.369.703-.905.703-1.605v-.27h-2.9v-1.25z"/></g><g><path fill="#fff" d="M119.47 66.387h1.536V57.01h-1.536z"/></g><g><path fill="#fff" d="M143.163 58.317h-3.244v8.07h-1.535v-8.07h-3.244V57.01h8.023z"/></g><g><path fill="#fff" d="M161.374 63.93h-3.991l-.904 2.457H154.9l3.573-9.377h1.837l3.575 9.377h-1.622zm-.47-1.233l-1.087-3.016-.43-1.352h-.043l-.4 1.324-1.116 3.044z"/></g><g><path fill="#fff" d="M184.63 65.08v1.307h-6.76V57.01h1.536v8.07z"/></g></g><g><g><path fill="#5101a6" d="M0 53.87h6.741l7.124 7.96-7.124 7.754H0l6.608-7.767z"/></g><g><path fill="#5101a6" d="M13.2 53.87h6.741l7.124 7.96-7.124 7.754H13.2l6.608-7.767z"/></g><g><path fill="#5101a6" d="M26.41 53.87h6.741l7.124 7.96-7.124 7.754H26.41l6.608-7.767z"/></g></g></g></g></svg>