<svg xmlns="http://www.w3.org/2000/svg" width="120" height="120" viewBox="0 0 120 120"><g><g><g><path fill="#e6e7e8" d="M0 15a3 3 0 1 1 6 0 3 3 0 0 1-6 0zm48 0a3 3 0 1 1 6 0 3 3 0 0 1-6 0zm-24 0a3 3 0 1 1 6 0 3 3 0 0 1-6 0zm48 0a3 3 0 1 1 6 0 3 3 0 0 1-6 0zm24 0a3 3 0 1 1 6 0 3 3 0 0 1-6 0zm-84 0a3 3 0 1 1 6 0 3 3 0 0 1-6 0zm48 0a3 3 0 1 1 6 0 3 3 0 0 1-6 0zm-24 0a3 3 0 1 1 6 0 3 3 0 0 1-6 0zm48 0a3 3 0 1 1 6 0 3 3 0 0 1-6 0zm24 0a3 3 0 1 1 6 0 3 3 0 0 1-6 0zM0 39a3 3 0 1 1 6 0 3 3 0 0 1-6 0zm48 0a3 3 0 1 1 6 0 3 3 0 0 1-6 0zm-24 0a3 3 0 1 1 6 0 3 3 0 0 1-6 0zm48 0a3 3 0 1 1 6 0 3 3 0 0 1-6 0zm24 0a3 3 0 1 1 6 0 3 3 0 0 1-6 0zm-84 0a3 3 0 1 1 6 0 3 3 0 0 1-6 0zm48 0a3 3 0 1 1 6 0 3 3 0 0 1-6 0zm-24 0a3 3 0 1 1 6 0 3 3 0 0 1-6 0zm48 0a3 3 0 1 1 6 0 3 3 0 0 1-6 0zm24 0a3 3 0 1 1 6 0 3 3 0 0 1-6 0zM0 75a3 3 0 1 1 6 0 3 3 0 0 1-6 0zm48 0a3 3 0 1 1 6 0 3 3 0 0 1-6 0zm-24 0a3 3 0 1 1 6 0 3 3 0 0 1-6 0zm48 0a3 3 0 1 1 6 0 3 3 0 0 1-6 0zm24 0a3 3 0 1 1 6 0 3 3 0 0 1-6 0zm-84 0a3 3 0 1 1 6 0 3 3 0 0 1-6 0zm48 0a3 3 0 1 1 6 0 3 3 0 0 1-6 0zm-24 0a3 3 0 1 1 6 0 3 3 0 0 1-6 0zm48 0a3 3 0 1 1 6 0 3 3 0 0 1-6 0zm24 0a3 3 0 1 1 6 0 3 3 0 0 1-6 0zM0 3a3 3 0 1 1 6 0 3 3 0 0 1-6 0zm48 0a3 3 0 1 1 6 0 3 3 0 0 1-6 0zM24 3a3 3 0 1 1 6 0 3 3 0 0 1-6 0zm48 0a3 3 0 1 1 6 0 3 3 0 0 1-6 0zm24 0a3 3 0 1 1 6 0 3 3 0 0 1-6 0zM12 3a3 3 0 1 1 6 0 3 3 0 0 1-6 0zm48 0a3 3 0 1 1 6 0 3 3 0 0 1-6 0zM36 3a3 3 0 1 1 6 0 3 3 0 0 1-6 0zm48 0a3 3 0 1 1 6 0 3 3 0 0 1-6 0zm24 0a3 3 0 1 1 6 0 3 3 0 0 1-6 0zM0 63a3 3 0 1 1 6 0 3 3 0 0 1-6 0zm48 0a3 3 0 1 1 6 0 3 3 0 0 1-6 0zm-24 0a3 3 0 1 1 6 0 3 3 0 0 1-6 0zm48 0a3 3 0 1 1 6 0 3 3 0 0 1-6 0zm24 0a3 3 0 1 1 6 0 3 3 0 0 1-6 0zm-84 0a3 3 0 1 1 6 0 3 3 0 0 1-6 0zm48 0a3 3 0 1 1 6 0 3 3 0 0 1-6 0zm-24 0a3 3 0 1 1 6 0 3 3 0 0 1-6 0zm48 0a3 3 0 1 1 6 0 3 3 0 0 1-6 0zm24 0a3 3 0 1 1 6 0 3 3 0 0 1-6 0zM0 99a3 3 0 1 1 6 0 3 3 0 0 1-6 0zm48 0a3 3 0 1 1 6 0 3 3 0 0 1-6 0zm-24 0a3 3 0 1 1 6 0 3 3 0 0 1-6 0zm48 0a3 3 0 1 1 6 0 3 3 0 0 1-6 0zm24 0a3 3 0 1 1 6 0 3 3 0 0 1-6 0zm-84 0a3 3 0 1 1 6 0 3 3 0 0 1-6 0zm48 0a3 3 0 1 1 6 0 3 3 0 0 1-6 0zm-24 0a3 3 0 1 1 6 0 3 3 0 0 1-6 0zm48 0a3 3 0 1 1 6 0 3 3 0 0 1-6 0zm24 0a3 3 0 1 1 6 0 3 3 0 0 1-6 0zM0 111a3 3 0 1 1 6 0 3 3 0 0 1-6 0zm48 0a3 3 0 1 1 6 0 3 3 0 0 1-6 0zm-24 0a3 3 0 1 1 6 0 3 3 0 0 1-6 0zm48 0a3 3 0 1 1 6 0 3 3 0 0 1-6 0zm24 0a3 3 0 1 1 6 0 3 3 0 0 1-6 0zm-84 0a3 3 0 1 1 6 0 3 3 0 0 1-6 0zm48 0a3 3 0 1 1 6 0 3 3 0 0 1-6 0zm-24 0a3 3 0 1 1 6 0 3 3 0 0 1-6 0zm48 0a3 3 0 1 1 6 0 3 3 0 0 1-6 0zm24 0a3 3 0 1 1 6 0 3 3 0 0 1-6 0zM0 51a3 3 0 1 1 6 0 3 3 0 0 1-6 0zm48 0a3 3 0 1 1 6 0 3 3 0 0 1-6 0zm-24 0a3 3 0 1 1 6 0 3 3 0 0 1-6 0zm48 0a3 3 0 1 1 6 0 3 3 0 0 1-6 0zm24 0a3 3 0 1 1 6 0 3 3 0 0 1-6 0zm-84 0a3 3 0 1 1 6 0 3 3 0 0 1-6 0zm48 0a3 3 0 1 1 6 0 3 3 0 0 1-6 0zm-24 0a3 3 0 1 1 6 0 3 3 0 0 1-6 0zm48 0a3 3 0 1 1 6 0 3 3 0 0 1-6 0zm24 0a3 3 0 1 1 6 0 3 3 0 0 1-6 0zM0 87a3 3 0 1 1 6 0 3 3 0 0 1-6 0zm48 0a3 3 0 1 1 6 0 3 3 0 0 1-6 0zm-24 0a3 3 0 1 1 6 0 3 3 0 0 1-6 0zm48 0a3 3 0 1 1 6 0 3 3 0 0 1-6 0zm24 0a3 3 0 1 1 6 0 3 3 0 0 1-6 0zm-84 0a3 3 0 1 1 6 0 3 3 0 0 1-6 0zm48 0a3 3 0 1 1 6 0 3 3 0 0 1-6 0zm-24 0a3 3 0 1 1 6 0 3 3 0 0 1-6 0zm48 0a3 3 0 1 1 6 0 3 3 0 0 1-6 0zm24 0a3 3 0 1 1 6 0 3 3 0 0 1-6 0zM0 27a3 3 0 1 1 6 0 3 3 0 0 1-6 0zm48 0a3 3 0 1 1 6 0 3 3 0 0 1-6 0zm-24 0a3 3 0 1 1 6 0 3 3 0 0 1-6 0zm48 0a3 3 0 1 1 6 0 3 3 0 0 1-6 0zm24 0a3 3 0 1 1 6 0 3 3 0 0 1-6 0zm-84 0a3 3 0 1 1 6 0 3 3 0 0 1-6 0zm48 0a3 3 0 1 1 6 0 3 3 0 0 1-6 0zm-24 0a3 3 0 1 1 6 0 3 3 0 0 1-6 0zm48 0a3 3 0 1 1 6 0 3 3 0 0 1-6 0zm24 0a3 3 0 1 1 6 0 3 3 0 0 1-6 0z"/></g></g></g></svg>