<svg xmlns="http://www.w3.org/2000/svg" width="244" height="40" viewBox="0 0 244 40"><defs><clipPath id="me16a"><path d="M.047.087h39.635V19.12H.047z"/></clipPath></defs><g><g><g><g><path fill="#881a1f" d="M82.427 9.102c-1.87-1.676-4.69-1.695-5.356-1.662l-9.976.008c-1.377 0-2.435 1.198-2.435 2.448 0 1.355 1.155 2.502 2.435 2.512 0 0 7.536-.01 9.976-.01.078 0 1.088-.014 1.781.633.456.425.807 1.262.786 1.845-.025.696-.325 1.357-.703 1.75-.589.613-1.384.739-1.864.739h-9.873a2.499 2.499 0 0 0-2.481 2.48v9.913a2.488 2.488 0 0 0 2.481 2.478c1.409 0 2.477-1.195 2.477-2.424v-6.858s-.037-.632.633-.632l6.763.016c.872.011 3.784-.1 5.573-1.895 1.252-1.257 2.174-2.825 2.165-5.567-.01-2.88-1.402-4.894-2.382-5.774"/></g><g><path fill="#881a1f" d="M237.023 22.087c1.036-.086 2.98-.33 4.389-1.634 1.005-.926 2.173-2.641 2.173-5.592 0-2.896-1.229-4.734-2.205-5.618-1.862-1.68-4.905-1.862-5.567-1.826h-9.945c-1.457-.004-2.481 1.177-2.481 2.536 0 1.308 1.112 2.421 2.481 2.421l10.044.003c.653-.003 2.453.498 2.43 2.476-.025 1.924-1.555 2.478-2.53 2.478h-4.987c-1.016.003-1.901.55-2.274 1.489-.372.94-.281 2.027.462 2.715l10.088 10.03a2.486 2.486 0 0 0 1.694.664 2.48 2.48 0 0 0 1.811-.78c.935-.991.939-2.548-.06-3.476l-5.618-5.178s-.233-.181-.24-.375c-.01-.281.31-.33.335-.333"/></g><g><path fill="#881a1f" d="M94.397 14.813c-1.37 0-2.537 1.04-2.537 2.325v12.74c0 1.283 1.167 2.437 2.537 2.437 1.368 0 2.534-1.154 2.534-2.438V17.138c0-1.285-1.166-2.325-2.534-2.325"/></g><g><path fill="#881a1f" d="M116.73 7.447c6.837 0 12.403 5.563 12.403 12.402 0 6.84-5.566 12.402-12.404 12.402s-12.402-5.562-12.402-12.402c0-6.839 5.564-12.402 12.402-12.402zm7.484 12.402c0-4.13-3.36-7.492-7.488-7.492-4.13 0-7.49 3.362-7.49 7.492 0 4.131 3.36 7.492 7.49 7.492 4.129 0 7.488-3.361 7.488-7.492z"/></g><g><path fill="#881a1f" d="M156.368 7.428c-1.326 0-2.481 1.114-2.481 2.479v11.398s.044.868-.164 1.084c-.08.084-.154.089-.262.103-.208.028-.766-.641-.766-.641l-11.96-13.675c-.89-1.01-2.432-1.04-3.44-.153-1.042.917-1.167 2.516-.18 3.605l17.475 19.947c.013.017.844.792 1.885.7h.002c.077 0 .154-.003.23-.012l.085-.011c.046-.007.094-.014.142-.023.033-.007.065-.016.098-.022.041-.01.083-.021.123-.033.033-.01.065-.022.098-.034.04-.014.08-.029.117-.045.033-.011.066-.028.097-.042.038-.017.073-.034.11-.054.032-.018.064-.034.094-.053l.102-.063.094-.066c.029-.023.06-.045.088-.071.033-.024.064-.051.095-.078.013-.012.029-.023.042-.037l.037-.036.092-.096c.027-.03.052-.058.075-.088.027-.028.05-.06.073-.09l.077-.104c.017-.03.037-.06.055-.088a1.461 1.461 0 0 0 .114-.206c.022-.043.042-.085.06-.126l.037-.096.047-.13c.008-.031.016-.065.028-.096l.032-.137a.845.845 0 0 0 .018-.096c.01-.049.018-.098.022-.147.005-.03.007-.06.01-.09.004-.054.006-.108.006-.163.002-.013.002-.026.002-.04V9.908c0-1.365-1.18-2.48-2.509-2.48"/></g><g><path fill="#881a1f" d="M183.813 17.373h-12.728c-1.285 0-2.325 1.109-2.325 2.478 0 1.37 1.04 2.479 2.325 2.479h12.728c1.284 0 2.326-1.109 2.326-2.479 0-1.369-1.042-2.478-2.326-2.478"/></g><g><path fill="#881a1f" d="M185.937 27.28h-14.524c-1.592 0-2.653 1.11-2.653 2.477 0 1.371 1.051 2.48 2.653 2.48h14.524c1.604 0 2.654-1.109 2.654-2.48 0-1.368-1.082-2.477-2.654-2.477"/></g><g><path fill="#881a1f" d="M185.937 7.427h-14.524c-1.592 0-2.653 1.11-2.653 2.476 0 1.372 1.051 2.48 2.653 2.48h14.524c1.604 0 2.654-1.108 2.654-2.48 0-1.366-1.082-2.476-2.654-2.476"/></g><g><path fill="#881a1f" d="M94.394 7.353a2.57 2.57 0 0 0-2.567 2.568 2.57 2.57 0 0 0 2.567 2.566 2.568 2.568 0 0 0 2.564-2.566 2.569 2.569 0 0 0-2.564-2.568"/></g><g><path fill="#881a1f" d="M139.1 27.073a2.57 2.57 0 0 0-2.567 2.568 2.57 2.57 0 0 0 2.567 2.567 2.57 2.57 0 0 0 2.565-2.567 2.57 2.57 0 0 0-2.565-2.568"/></g><g><path fill="#881a1f" d="M225.867 27.153a2.57 2.57 0 0 0-2.567 2.567 2.57 2.57 0 0 0 2.567 2.568 2.568 2.568 0 0 0 0-5.135"/></g><g><path fill="#881a1f" d="M211.086 17.36h-12.727c-1.286 0-2.326 1.109-2.326 2.478 0 1.37 1.04 2.479 2.326 2.479h12.727c1.284 0 2.326-1.109 2.326-2.479s-1.042-2.478-2.326-2.478"/></g><g><path fill="#881a1f" d="M213.21 27.273h-14.524c-1.591 0-2.653 1.11-2.653 2.478 0 1.37 1.052 2.479 2.653 2.479h14.525c1.603 0 2.653-1.109 2.653-2.48 0-1.367-1.081-2.477-2.653-2.477"/></g><g><g><path fill="#881a1f" d="M213.21 7.413h-14.524c-1.591 0-2.653 1.11-2.653 2.477 0 1.371 1.052 2.48 2.653 2.48h14.525c1.603 0 2.653-1.109 2.653-2.48 0-1.367-1.081-2.477-2.653-2.477"/></g><g><path fill="#881a1f" d="M1.09.823C1.906.09 3.141.083 3.43.096L7.794.1c.603 0 1.065.525 1.065 1.071 0 .592-.504 1.094-1.065 1.098l-4.363-.004c-.032 0-.475-.005-.778.278-.2.185-.354.55-.344.806.012.304.141.594.308.766.258.268.606.323.814.323H7.75c.798.027 1.103.71 1.086 1.083v4.337c0 .59-.484 1.083-1.086 1.083-.615 0-1.084-.522-1.084-1.059v-3s.016-.277-.276-.277l-2.958.006c-.381.006-1.655-.043-2.436-.828C.447 5.235.043 4.548.047 3.349.052 2.089.66 1.209 1.089.823"/></g><g><path fill="#881a1f" d="M11.376.823c.817-.734 2.05-.74 2.341-.727L18.08.1c.604 0 1.066.525 1.066 1.071 0 .592-.506 1.094-1.066 1.098l-4.362-.004c-.034 0-.476-.005-.78.278-.198.185-.353.55-.342.806.01.304.142.594.308.766.256.268.606.323.814.323h4.318c.797.027 1.104.71 1.086 1.083v4.337c0 .59-.486 1.083-1.086 1.083-.614 0-1.083-.522-1.083-1.059v-3s.015-.277-.277-.277l-2.958.006c-.382.006-1.656-.043-2.436-.828-.549-.548-.954-1.235-.948-2.434.006-1.26.614-2.14 1.043-2.526"/></g></g><g><path fill="#881a1f" d="M18.103 18.385c-.818.734-2.053.741-2.341.727l-4.365-.004c-.602 0-1.064-.525-1.064-1.071 0-.592.504-1.094 1.064-1.098l4.365.004c.032 0 .475.005.777-.278.2-.184.354-.55.344-.805a1.208 1.208 0 0 0-.308-.767c-.257-.268-.606-.322-.813-.322h-4.32a1.094 1.094 0 0 1-1.086-1.084V9.35a1.09 1.09 0 0 1 1.087-1.084c.615 0 1.084.522 1.084 1.06v3s-.015.276.276.276l2.959-.006c.38-.005 1.655.043 2.435.829.548.548.952 1.235.948 2.434-.005 1.259-.615 2.14-1.042 2.525"/></g><g><g/><g clip-path="url(#me16a)"><path fill="#881a1f" d="M7.817 18.385c-.817.734-2.052.741-2.342.727l-4.362-.004c-.602 0-1.066-.525-1.066-1.071 0-.592.505-1.094 1.066-1.098l4.362.004c.034 0 .476.005.78-.278.198-.184.353-.55.342-.805a1.21 1.21 0 0 0-.306-.767c-.258-.268-.608-.322-.816-.322H1.157A1.092 1.092 0 0 1 .07 13.687V9.35c0-.592.486-1.084 1.086-1.084.614 0 1.083.522 1.083 1.06v3s-.015.276.277.276l2.958-.006c.382-.005 1.656.043 2.436.829.549.548.954 1.235.948 2.434-.006 1.259-.614 2.14-1.042 2.525"/></g><g clip-path="url(#me16a)"><path fill="#881a1f" d="M38.635.81c-.818-.733-2.052-.74-2.341-.727L31.93.087c-.603 0-1.063.526-1.063 1.072 0 .592.504 1.093 1.063 1.097l4.364-.004c.033 0 .475-.005.778.278.2.185.354.55.345.805a1.205 1.205 0 0 1-.31.768c-.257.267-.604.322-.813.322h-4.318a1.093 1.093 0 0 0-1.087 1.084v4.336c0 .591.485 1.083 1.087 1.083.615 0 1.084-.522 1.084-1.06v-3s-.015-.276.276-.276l2.958.007c.381.005 1.655-.044 2.436-.83.548-.548.952-1.234.948-2.434-.005-1.258-.615-2.14-1.043-2.524"/></g><g clip-path="url(#me16a)"><path fill="#881a1f" d="M28.356.81c-.817-.733-2.05-.74-2.341-.727l-4.362.004c-.604 0-1.066.526-1.066 1.072 0 .592.505 1.093 1.066 1.097l4.362-.004c.033 0 .474-.005.779.278.199.185.354.55.343.805-.01.306-.142.594-.308.768-.257.267-.606.322-.814.322h-4.319a1.092 1.092 0 0 0-1.085 1.084v4.336c0 .591.485 1.083 1.085 1.083.615 0 1.084-.522 1.084-1.06v-3s-.015-.276.276-.276l2.959.007c.382.005 1.656-.044 2.435-.83.55-.548.954-1.234.949-2.434-.006-1.258-.614-2.14-1.043-2.524"/></g></g><g><path fill="#881a1f" d="M21.629 18.377c.818.735 2.053.742 2.341.728l4.364-.004c.602 0 1.065-.525 1.065-1.071 0-.592-.504-1.094-1.065-1.098l-4.364.004c-.033 0-.475.005-.777-.277-.201-.186-.354-.55-.344-.806.01-.305.14-.594.307-.768.258-.266.606-.321.814-.321h4.319a1.094 1.094 0 0 0 1.086-1.084V9.344c0-.591-.484-1.084-1.086-1.084-.615 0-1.084.522-1.084 1.06v3s.016.277-.276.277l-2.959-.007c-.38-.005-1.655.043-2.435.829-.548.548-.952 1.234-.948 2.434.005 1.259.614 2.14 1.042 2.524"/></g><g><path fill="#881a1f" d="M31.909 18.377c.816.735 2.05.742 2.341.728l4.363-.004c.602 0 1.065-.525 1.065-1.071 0-.592-.505-1.094-1.065-1.098l-4.363.004c-.035 0-.475.005-.78-.277-.198-.186-.353-.55-.343-.806.011-.305.142-.594.308-.768.258-.266.606-.321.815-.321h4.318a1.092 1.092 0 0 0 1.085-1.084V9.344c0-.591-.484-1.084-1.085-1.084-.614 0-1.084.522-1.084 1.06v3s.016.277-.277.277l-2.957-.007c-.381-.005-1.657.043-2.436.829-.55.548-.953 1.234-.947 2.434.004 1.259.613 2.14 1.042 2.524"/></g><g><path fill="#881a1f" d="M1.116 38.937c.818.734 2.053.741 2.341.728l4.364-.004c.603 0 1.065-.526 1.065-1.072 0-.592-.505-1.093-1.065-1.097l-4.364.004c-.032 0-.474.005-.778-.278-.2-.185-.353-.55-.343-.805.01-.305.14-.594.308-.768.257-.267.605-.322.813-.322h4.319a1.093 1.093 0 0 0 1.087-1.084v-4.336c0-.591-.486-1.083-1.087-1.083-.615 0-1.083.521-1.083 1.06v3s.014.276-.277.276l-2.959-.007c-.38-.005-1.654.044-2.435.83-.548.548-.953 1.234-.949 2.434.006 1.258.616 2.139 1.043 2.524"/></g><g><path fill="#881a1f" d="M11.403 38.937c.816.734 2.05.741 2.341.728l4.362-.004c.603 0 1.066-.526 1.066-1.072 0-.592-.506-1.093-1.066-1.097l-4.362.004c-.035 0-.476.005-.78-.278-.199-.185-.353-.55-.342-.805.01-.305.14-.594.307-.768.257-.267.607-.322.815-.322h4.319a1.091 1.091 0 0 0 1.084-1.084v-4.336c0-.591-.485-1.083-1.084-1.083-.616 0-1.085.521-1.085 1.06v3s.015.276-.276.276l-2.958-.007c-.382-.005-1.657.044-2.436.83-.55.548-.953 1.234-.948 2.434.006 1.258.614 2.139 1.043 2.524"/></g><g><path fill="#881a1f" d="M18.13 21.377c-.818-.735-2.053-.741-2.341-.727l-4.364.004c-.604 0-1.065.525-1.065 1.07 0 .593.504 1.094 1.065 1.098l4.364-.004c.032 0 .474-.004.778.278.199.185.352.55.343.806-.01.305-.141.594-.308.768-.258.266-.606.32-.813.32h-4.32a1.095 1.095 0 0 0-1.086 1.085v4.336a1.09 1.09 0 0 0 1.086 1.084c.616 0 1.084-.522 1.084-1.06v-3s-.014-.276.277-.276l2.959.006c.38.006 1.654-.044 2.435-.829.548-.548.952-1.234.948-2.434-.005-1.26-.615-2.14-1.043-2.525"/></g><g><path fill="#881a1f" d="M7.843 21.377c-.816-.735-2.051-.741-2.341-.727l-4.363.004c-.602 0-1.066.525-1.066 1.07 0 .593.506 1.094 1.066 1.098l4.363-.004c.034 0 .476-.004.78.278.198.185.353.55.342.806a1.21 1.21 0 0 1-.307.768c-.257.266-.607.32-.815.32H1.183a1.093 1.093 0 0 0-1.085 1.085v4.336c0 .592.485 1.084 1.085 1.084.615 0 1.084-.522 1.084-1.06v-3s-.015-.276.277-.276l2.958.006c.382.006 1.656-.044 2.436-.829.549-.548.954-1.234.948-2.434-.006-1.26-.614-2.14-1.043-2.525"/></g><g><path fill="#881a1f" d="M38.67 38.95c-.819.735-2.053.741-2.342.728l-4.365-.005c-.602 0-1.063-.525-1.063-1.07 0-.593.504-1.094 1.063-1.098l4.365.004c.033 0 .475.005.777-.278.201-.185.354-.55.345-.806a1.206 1.206 0 0 0-.31-.767c-.257-.267-.605-.322-.812-.322h-4.319a1.093 1.093 0 0 1-1.086-1.083v-4.336c0-.592.484-1.084 1.086-1.084.616 0 1.084.522 1.084 1.058v3.002s-.015.276.277.276l2.958-.006c.38-.006 1.655.042 2.435.828.548.548.952 1.235.948 2.434-.004 1.259-.614 2.14-1.042 2.525"/></g><g><path fill="#881a1f" d="M28.383 38.95c-.816.735-2.051.741-2.342.728l-4.362-.005c-.602 0-1.066-.525-1.066-1.07 0-.593.506-1.094 1.066-1.098l4.362.004c.034 0 .476.005.78-.278.198-.185.354-.55.342-.806a1.212 1.212 0 0 0-.306-.767c-.258-.267-.607-.322-.816-.322h-4.318a1.092 1.092 0 0 1-1.085-1.083v-4.336c0-.592.485-1.084 1.085-1.084.615 0 1.084.522 1.084 1.058v3.002s-.016.276.277.276l2.957-.006c.382-.006 1.657.042 2.437.828.549.548.953 1.235.948 2.434-.006 1.259-.614 2.14-1.043 2.525"/></g><g><path fill="#881a1f" d="M21.655 21.384c.819-.735 2.053-.741 2.342-.728l4.364.005c.602 0 1.065.524 1.065 1.071 0 .591-.505 1.093-1.065 1.097l-4.364-.004c-.032 0-.475-.005-.778.278-.2.185-.353.55-.344.806.012.304.141.594.308.767.258.267.606.322.814.322h4.319c.797.027 1.103.71 1.085 1.084v4.335c0 .592-.484 1.084-1.085 1.084-.615 0-1.084-.522-1.084-1.059v-3s.015-.277-.276-.277l-2.959.006c-.38.006-1.654-.043-2.436-.828-.547-.548-.952-1.234-.948-2.434.006-1.259.615-2.14 1.042-2.525"/></g><g><path fill="#881a1f" d="M31.942 21.384c.817-.735 2.05-.741 2.342-.728l4.362.005c.603 0 1.065.524 1.065 1.071 0 .591-.505 1.093-1.065 1.097l-4.362-.004c-.035 0-.476-.005-.78.278-.199.185-.353.55-.343.806.01.304.142.594.308.767.257.267.606.322.815.322h4.317a1.09 1.09 0 0 1 1.086 1.084v4.335c0 .592-.485 1.084-1.086 1.084-.614 0-1.084-.522-1.084-1.059v-3s.016-.277-.276-.277l-2.957.006c-.383.006-1.657-.043-2.437-.828-.549-.548-.953-1.234-.947-2.434.005-1.259.613-2.14 1.042-2.525"/></g></g></g></g></svg>