<svg xmlns="http://www.w3.org/2000/svg" width="64" height="64" viewBox="0 0 64 64"><g><g><path fill="none" stroke="#9e0a0e" stroke-miterlimit="50" stroke-width="2" d="M3 32v0h58v31H3v0z"/></g><g><path fill="none" stroke="#9e0a0e" stroke-miterlimit="50" stroke-width="2" d="M17 32v0h44v0V9v0L17 5v0z"/></g><g><path fill="#fff" d="M17 28h40V8.407L17 5z"/><path fill="#9e0a0e" fill-opacity=".2" d="M17 28h40V8.407L17 5z"/><path fill="none" stroke="#9e0a0e" stroke-miterlimit="50" stroke-width="2" d="M17 28v0h40v0V8.407v0L17 5v0z"/></g><g><path fill="none" stroke="#9e0a0e" stroke-miterlimit="50" stroke-width="2" d="M3 32v0h33v0-10 0H3v0z"/></g><g><path fill="none" stroke="#9e0a0e" stroke-miterlimit="50" stroke-width="2" d="M17 32v0h19v0-10 0H17v0z"/></g><g><path fill="none" stroke="#9e0a0e" stroke-miterlimit="50" stroke-width="2" d="M7 50v0h28v0-12 0H7v0z"/></g><g><path fill="#fff" d="M35 50H25V38h10z"/><path fill="#9e0a0e" fill-opacity=".2" d="M35 50H25V38h10z"/><path fill="none" stroke="#9e0a0e" stroke-miterlimit="50" stroke-width="2" d="M35 50v0H25v0-12 0h10v0z"/></g><g><path fill="none" stroke="#9e0a0e" stroke-miterlimit="50" stroke-width="2" d="M40 38v0h17v25H40v0z"/></g><g><path fill="none" stroke="#9e0a0e" stroke-miterlimit="50" stroke-width="2" d="M49 1v0h12v12H49v0z"/></g><g><path fill="none" stroke="#9e0a0e" stroke-miterlimit="50" stroke-width="2" d="M53 1v0h4v4h-4v0z"/></g><g><path fill="none" stroke="#9e0a0e" stroke-miterlimit="50" stroke-width="2" d="M49 5v0h12v8H49v0z"/></g><g><path fill="#9e0a0e" d="M0 64h64v-2H0z"/></g><g><path fill="#fff" d="M40 59h17v4H40z"/><path fill="none" stroke="#9e0a0e" stroke-miterlimit="50" stroke-width="2" d="M40 59v0h17v4H40v0z"/></g><g><path fill="#fff" d="M1 3l62 6v6L1 9z"/><path fill="#9e0a0e" fill-opacity=".2" d="M1 3l62 6v6L1 9z"/><path fill="none" stroke="#9e0a0e" stroke-miterlimit="50" stroke-width="2" d="M1 3v0l62 6v6L1 9v0z"/></g></g></svg>