<svg xmlns="http://www.w3.org/2000/svg" width="64" height="61" viewBox="0 0 64 61"><g><g><path fill="#fff" d="M3 7h58v53H3z"/><path fill="none" stroke="#9e0a0e" stroke-miterlimit="50" stroke-width="2" d="M3 7v0h58v53H3v0z"/></g><g><path fill="#fff" d="M57 60H7V32h50z"/><path fill="#9e0a0e" fill-opacity=".2" d="M57 60H7V32h50z"/><path fill="none" stroke="#9e0a0e" stroke-miterlimit="50" stroke-width="2" d="M57 60v0H7v0-28 0h50v0z"/></g><g><path fill="#fff" d="M32 60H7V32h25z"/><path fill="#9e0a0e" fill-opacity=".2" d="M32 60H7V32h25z"/><path fill="none" stroke="#9e0a0e" stroke-miterlimit="50" stroke-width="2" d="M32 60v0H7v0-28 0h25v0z"/></g><g><path fill="#fff" d="M57 22H7V11h50z"/><path fill="#9e0a0e" fill-opacity=".2" d="M57 22H7V11h50z"/><path fill="none" stroke="#9e0a0e" stroke-miterlimit="50" stroke-width="2" d="M57 22v0H7v0-11 0h50v0z"/></g><g><path fill="#9e0a0e" d="M0 61h64v-2H0z"/></g><g><path fill="#9e0a0e" d="M0 8h64V6H0z"/></g><g><path fill="#9e0a0e" d="M35 50h2v-8h-2z"/></g><g><path fill="#9e0a0e" d="M27 50h2v-8h-2z"/></g><g><path fill="#fff" d="M1 26h62v6H1z"/><path fill="none" stroke="#9e0a0e" stroke-miterlimit="50" stroke-width="2" d="M1 26v0h62v6H1v0z"/></g><g><path fill="#fff" d="M7 1h4v6H7z"/><path fill="none" stroke="#9e0a0e" stroke-miterlimit="50" stroke-width="2" d="M7 1v0h4v6H7v0z"/></g><g><path fill="#fff" d="M11 4h4v3h-4z"/><path fill="none" stroke="#9e0a0e" stroke-miterlimit="50" stroke-width="2" d="M11 4v0h4v3h-4v0z"/></g></g></svg>