<svg xmlns="http://www.w3.org/2000/svg" width="64" height="64" viewBox="0 0 64 64"><g><g><path fill="#fff" d="M30 1h30v62H30z"/><path fill="none" stroke="#9e0a0e" stroke-miterlimit="50" stroke-width="2" d="M30 1v0h30v62H30v0z"/></g><g><g><path fill="#fff" d="M30 1h6v6h-6z"/><path fill="#9e0a0e" fill-opacity=".2" d="M30 1h6v6h-6z"/><path fill="none" stroke="#9e0a0e" stroke-miterlimit="50" stroke-width="2" d="M30 1v0h6v6h-6v0z"/></g><g><path fill="#fff" d="M42 1h6v6h-6z"/><path fill="#9e0a0e" fill-opacity=".2" d="M42 1h6v6h-6z"/><path fill="none" stroke="#9e0a0e" stroke-miterlimit="50" stroke-width="2" d="M42 1v0h6v6h-6v0z"/></g><g><path fill="#fff" d="M36 1h6v6h-6z"/><path fill="#9e0a0e" fill-opacity=".2" d="M36 1h6v6h-6z"/><path fill="none" stroke="#9e0a0e" stroke-miterlimit="50" stroke-width="2" d="M36 1v0h6v6h-6v0z"/></g><g><path fill="#fff" d="M48 1h6v6h-6z"/><path fill="#9e0a0e" fill-opacity=".2" d="M48 1h6v6h-6z"/><path fill="none" stroke="#9e0a0e" stroke-miterlimit="50" stroke-width="2" d="M48 1v0h6v6h-6v0z"/></g><g><path fill="#fff" d="M54 1h6v6h-6z"/><path fill="#9e0a0e" fill-opacity=".2" d="M54 1h6v6h-6z"/><path fill="none" stroke="#9e0a0e" stroke-miterlimit="50" stroke-width="2" d="M54 1v0h6v6h-6v0z"/></g></g><g><g><path fill="#fff" d="M30 13h6v6h-6z"/><path fill="#9e0a0e" fill-opacity=".2" d="M30 13h6v6h-6z"/><path fill="none" stroke="#9e0a0e" stroke-miterlimit="50" stroke-width="2" d="M30 13v0h6v6h-6v0z"/></g><g><path fill="#fff" d="M42 13h6v6h-6z"/><path fill="#9e0a0e" fill-opacity=".2" d="M42 13h6v6h-6z"/><path fill="none" stroke="#9e0a0e" stroke-miterlimit="50" stroke-width="2" d="M42 13v0h6v6h-6v0z"/></g><g><path fill="#fff" d="M36 13h6v6h-6z"/><path fill="#9e0a0e" fill-opacity=".2" d="M36 13h6v6h-6z"/><path fill="none" stroke="#9e0a0e" stroke-miterlimit="50" stroke-width="2" d="M36 13v0h6v6h-6v0z"/></g><g><path fill="#fff" d="M48 13h6v6h-6z"/><path fill="#9e0a0e" fill-opacity=".2" d="M48 13h6v6h-6z"/><path fill="none" stroke="#9e0a0e" stroke-miterlimit="50" stroke-width="2" d="M48 13v0h6v6h-6v0z"/></g><g><path fill="#fff" d="M54 13h6v6h-6z"/><path fill="#9e0a0e" fill-opacity=".2" d="M54 13h6v6h-6z"/><path fill="none" stroke="#9e0a0e" stroke-miterlimit="50" stroke-width="2" d="M54 13v0h6v6h-6v0z"/></g></g><g><g><path fill="#fff" d="M30 31h6v6h-6z"/><path fill="#9e0a0e" fill-opacity=".2" d="M30 31h6v6h-6z"/><path fill="none" stroke="#9e0a0e" stroke-miterlimit="50" stroke-width="2" d="M30 31v0h6v6h-6v0z"/></g><g><path fill="#fff" d="M42 31h6v6h-6z"/><path fill="#9e0a0e" fill-opacity=".2" d="M42 31h6v6h-6z"/><path fill="none" stroke="#9e0a0e" stroke-miterlimit="50" stroke-width="2" d="M42 31v0h6v6h-6v0z"/></g><g><path fill="#fff" d="M36 31h6v6h-6z"/><path fill="#9e0a0e" fill-opacity=".2" d="M36 31h6v6h-6z"/><path fill="none" stroke="#9e0a0e" stroke-miterlimit="50" stroke-width="2" d="M36 31v0h6v6h-6v0z"/></g><g><path fill="#fff" d="M48 31h6v6h-6z"/><path fill="#9e0a0e" fill-opacity=".2" d="M48 31h6v6h-6z"/><path fill="none" stroke="#9e0a0e" stroke-miterlimit="50" stroke-width="2" d="M48 31v0h6v6h-6v0z"/></g><g><path fill="#fff" d="M54 31h6v6h-6z"/><path fill="#9e0a0e" fill-opacity=".2" d="M54 31h6v6h-6z"/><path fill="none" stroke="#9e0a0e" stroke-miterlimit="50" stroke-width="2" d="M54 31v0h6v6h-6v0z"/></g></g><g><g><path fill="#fff" d="M30 7h6v6h-6z"/><path fill="#9e0a0e" fill-opacity=".2" d="M30 7h6v6h-6z"/><path fill="none" stroke="#9e0a0e" stroke-miterlimit="50" stroke-width="2" d="M30 7v0h6v6h-6v0z"/></g><g><path fill="#fff" d="M42 7h6v6h-6z"/><path fill="#9e0a0e" fill-opacity=".2" d="M42 7h6v6h-6z"/><path fill="none" stroke="#9e0a0e" stroke-miterlimit="50" stroke-width="2" d="M42 7v0h6v6h-6v0z"/></g><g><path fill="#fff" d="M36 7h6v6h-6z"/><path fill="#9e0a0e" fill-opacity=".2" d="M36 7h6v6h-6z"/><path fill="none" stroke="#9e0a0e" stroke-miterlimit="50" stroke-width="2" d="M36 7v0h6v6h-6v0z"/></g><g><path fill="#fff" d="M48 7h6v6h-6z"/><path fill="#9e0a0e" fill-opacity=".2" d="M48 7h6v6h-6z"/><path fill="none" stroke="#9e0a0e" stroke-miterlimit="50" stroke-width="2" d="M48 7v0h6v6h-6v0z"/></g><g><path fill="#fff" d="M54 7h6v6h-6z"/><path fill="#9e0a0e" fill-opacity=".2" d="M54 7h6v6h-6z"/><path fill="none" stroke="#9e0a0e" stroke-miterlimit="50" stroke-width="2" d="M54 7v0h6v6h-6v0z"/></g></g><g><g><path fill="#fff" d="M30 19h6v6h-6z"/><path fill="#9e0a0e" fill-opacity=".2" d="M30 19h6v6h-6z"/><path fill="none" stroke="#9e0a0e" stroke-miterlimit="50" stroke-width="2" d="M30 19v0h6v6h-6v0z"/></g><g><path fill="#fff" d="M42 19h6v6h-6z"/><path fill="#9e0a0e" fill-opacity=".2" d="M42 19h6v6h-6z"/><path fill="none" stroke="#9e0a0e" stroke-miterlimit="50" stroke-width="2" d="M42 19v0h6v6h-6v0z"/></g><g><path fill="#fff" d="M36 19h6v6h-6z"/><path fill="#9e0a0e" fill-opacity=".2" d="M36 19h6v6h-6z"/><path fill="none" stroke="#9e0a0e" stroke-miterlimit="50" stroke-width="2" d="M36 19v0h6v6h-6v0z"/></g><g><path fill="#fff" d="M48 19h6v6h-6z"/><path fill="#9e0a0e" fill-opacity=".2" d="M48 19h6v6h-6z"/><path fill="none" stroke="#9e0a0e" stroke-miterlimit="50" stroke-width="2" d="M48 19v0h6v6h-6v0z"/></g><g><path fill="#fff" d="M54 19h6v6h-6z"/><path fill="#9e0a0e" fill-opacity=".2" d="M54 19h6v6h-6z"/><path fill="none" stroke="#9e0a0e" stroke-miterlimit="50" stroke-width="2" d="M54 19v0h6v6h-6v0z"/></g></g><g><g><path fill="#fff" d="M30 19h6v6h-6z"/><path fill="#9e0a0e" fill-opacity=".2" d="M30 19h6v6h-6z"/><path fill="none" stroke="#9e0a0e" stroke-miterlimit="50" stroke-width="2" d="M30 19v0h6v6h-6v0z"/></g><g><path fill="#fff" d="M42 19h6v6h-6z"/><path fill="#9e0a0e" fill-opacity=".2" d="M42 19h6v6h-6z"/><path fill="none" stroke="#9e0a0e" stroke-miterlimit="50" stroke-width="2" d="M42 19v0h6v6h-6v0z"/></g><g><path fill="#fff" d="M36 19h6v6h-6z"/><path fill="#9e0a0e" fill-opacity=".2" d="M36 19h6v6h-6z"/><path fill="none" stroke="#9e0a0e" stroke-miterlimit="50" stroke-width="2" d="M36 19v0h6v6h-6v0z"/></g><g><path fill="#fff" d="M48 19h6v6h-6z"/><path fill="#9e0a0e" fill-opacity=".2" d="M48 19h6v6h-6z"/><path fill="none" stroke="#9e0a0e" stroke-miterlimit="50" stroke-width="2" d="M48 19v0h6v6h-6v0z"/></g><g><path fill="#fff" d="M54 19h6v6h-6z"/><path fill="#9e0a0e" fill-opacity=".2" d="M54 19h6v6h-6z"/><path fill="none" stroke="#9e0a0e" stroke-miterlimit="50" stroke-width="2" d="M54 19v0h6v6h-6v0z"/></g></g><g><g><path fill="#fff" d="M30 37h6v6h-6z"/><path fill="#9e0a0e" fill-opacity=".2" d="M30 37h6v6h-6z"/><path fill="none" stroke="#9e0a0e" stroke-miterlimit="50" stroke-width="2" d="M30 37v0h6v6h-6v0z"/></g><g><path fill="#fff" d="M42 37h6v6h-6z"/><path fill="#9e0a0e" fill-opacity=".2" d="M42 37h6v6h-6z"/><path fill="none" stroke="#9e0a0e" stroke-miterlimit="50" stroke-width="2" d="M42 37v0h6v6h-6v0z"/></g><g><path fill="#fff" d="M36 37h6v6h-6z"/><path fill="#9e0a0e" fill-opacity=".2" d="M36 37h6v6h-6z"/><path fill="none" stroke="#9e0a0e" stroke-miterlimit="50" stroke-width="2" d="M36 37v0h6v6h-6v0z"/></g><g><path fill="#fff" d="M48 37h6v6h-6z"/><path fill="#9e0a0e" fill-opacity=".2" d="M48 37h6v6h-6z"/><path fill="none" stroke="#9e0a0e" stroke-miterlimit="50" stroke-width="2" d="M48 37v0h6v6h-6v0z"/></g><g><path fill="#fff" d="M54 37h6v6h-6z"/><path fill="#9e0a0e" fill-opacity=".2" d="M54 37h6v6h-6z"/><path fill="none" stroke="#9e0a0e" stroke-miterlimit="50" stroke-width="2" d="M54 37v0h6v6h-6v0z"/></g></g><g><g><path fill="#fff" d="M30 25h6v6h-6z"/><path fill="#9e0a0e" fill-opacity=".2" d="M30 25h6v6h-6z"/><path fill="none" stroke="#9e0a0e" stroke-miterlimit="50" stroke-width="2" d="M30 25v0h6v6h-6v0z"/></g><g><path fill="#fff" d="M42 25h6v6h-6z"/><path fill="#9e0a0e" fill-opacity=".2" d="M42 25h6v6h-6z"/><path fill="none" stroke="#9e0a0e" stroke-miterlimit="50" stroke-width="2" d="M42 25v0h6v6h-6v0z"/></g><g><path fill="#fff" d="M36 25h6v6h-6z"/><path fill="#9e0a0e" fill-opacity=".2" d="M36 25h6v6h-6z"/><path fill="none" stroke="#9e0a0e" stroke-miterlimit="50" stroke-width="2" d="M36 25v0h6v6h-6v0z"/></g><g><path fill="#fff" d="M48 25h6v6h-6z"/><path fill="#9e0a0e" fill-opacity=".2" d="M48 25h6v6h-6z"/><path fill="none" stroke="#9e0a0e" stroke-miterlimit="50" stroke-width="2" d="M48 25v0h6v6h-6v0z"/></g><g><path fill="#fff" d="M54 25h6v6h-6z"/><path fill="#9e0a0e" fill-opacity=".2" d="M54 25h6v6h-6z"/><path fill="none" stroke="#9e0a0e" stroke-miterlimit="50" stroke-width="2" d="M54 25v0h6v6h-6v0z"/></g></g><g><path fill="#fff" d="M30 43h6v6h-6z"/><path fill="#9e0a0e" fill-opacity=".2" d="M30 43h6v6h-6z"/><path fill="none" stroke="#9e0a0e" stroke-miterlimit="50" stroke-width="2" d="M30 43v0h6v6h-6v0z"/></g><g><path fill="#fff" d="M42 43h6v6h-6z"/><path fill="#9e0a0e" fill-opacity=".2" d="M42 43h6v6h-6z"/><path fill="none" stroke="#9e0a0e" stroke-miterlimit="50" stroke-width="2" d="M42 43v0h6v6h-6v0z"/></g><g><path fill="#fff" d="M30 49h15v14H30z"/><path fill="#9e0a0e" fill-opacity=".2" d="M30 49h15v14H30z"/><path fill="none" stroke="#9e0a0e" stroke-miterlimit="50" stroke-width="2" d="M30 49v0h15v14H30v0z"/></g><g><path fill="#fff" d="M45 49h15v14H45z"/><path fill="#9e0a0e" fill-opacity=".2" d="M45 49h15v14H45z"/><path fill="none" stroke="#9e0a0e" stroke-miterlimit="50" stroke-width="2" d="M45 49v0h15v14H45v0z"/></g><g><path fill="#fff" d="M36 43h6v6h-6z"/><path fill="#9e0a0e" fill-opacity=".2" d="M36 43h6v6h-6z"/><path fill="none" stroke="#9e0a0e" stroke-miterlimit="50" stroke-width="2" d="M36 43v0h6v6h-6v0z"/></g><g><path fill="#fff" d="M48 43h6v6h-6z"/><path fill="#9e0a0e" fill-opacity=".2" d="M48 43h6v6h-6z"/><path fill="none" stroke="#9e0a0e" stroke-miterlimit="50" stroke-width="2" d="M48 43v0h6v6h-6v0z"/></g><g><path fill="#fff" d="M54 43h6v6h-6z"/><path fill="#9e0a0e" fill-opacity=".2" d="M54 43h6v6h-6z"/><path fill="none" stroke="#9e0a0e" stroke-miterlimit="50" stroke-width="2" d="M54 43v0h6v6h-6v0z"/></g><g><path fill="#fff" d="M3 13h30v50H3z"/><path fill="none" stroke="#9e0a0e" stroke-miterlimit="50" stroke-width="2" d="M3 13v0h30v50H3v0z"/></g><g><path fill="none" stroke="#9e0a0e" stroke-miterlimit="50" stroke-width="2" d="M9 7v0h6v6H9v0z"/></g><g><path fill="#fff" d="M9 9h6V5H9z"/><path fill="none" stroke="#9e0a0e" stroke-miterlimit="50" stroke-width="2" d="M9 9v0h6v0-4 0H9v0z"/></g><g><path fill="#fff" d="M19 13h2v-2h-2z"/><path fill="none" stroke="#9e0a0e" stroke-miterlimit="50" stroke-width="2" d="M19 13v0h2v0-2 0h-2v0z"/></g><g><path fill="#fff" d="M25 13h2v-2h-2z"/><path fill="none" stroke="#9e0a0e" stroke-miterlimit="50" stroke-width="2" d="M25 13v0h2v0-2 0h-2v0z"/></g><g><path fill="#fff" d="M9 19h6v6H9z"/><path fill="#9e0a0e" fill-opacity=".2" d="M9 19h6v6H9z"/><path fill="none" stroke="#9e0a0e" stroke-miterlimit="50" stroke-width="2" d="M9 19v0h6v6H9v0z"/></g><g><path fill="#fff" d="M9 29h6v6H9z"/><path fill="#9e0a0e" fill-opacity=".2" d="M9 29h6v6H9z"/><path fill="none" stroke="#9e0a0e" stroke-miterlimit="50" stroke-width="2" d="M9 29v0h6v6H9v0z"/></g><g><path fill="#fff" d="M9 39h6v6H9z"/><path fill="#9e0a0e" fill-opacity=".2" d="M9 39h6v6H9z"/><path fill="none" stroke="#9e0a0e" stroke-miterlimit="50" stroke-width="2" d="M9 39v0h6v6H9v0z"/></g><g><path fill="#fff" d="M15 19h6v6h-6z"/><path fill="#9e0a0e" fill-opacity=".2" d="M15 19h6v6h-6z"/><path fill="none" stroke="#9e0a0e" stroke-miterlimit="50" stroke-width="2" d="M15 19v0h6v6h-6v0z"/></g><g><path fill="#fff" d="M15 29h6v6h-6z"/><path fill="#9e0a0e" fill-opacity=".2" d="M15 29h6v6h-6z"/><path fill="none" stroke="#9e0a0e" stroke-miterlimit="50" stroke-width="2" d="M15 29v0h6v6h-6v0z"/></g><g><path fill="#fff" d="M15 39h6v6h-6z"/><path fill="#9e0a0e" fill-opacity=".2" d="M15 39h6v6h-6z"/><path fill="none" stroke="#9e0a0e" stroke-miterlimit="50" stroke-width="2" d="M15 39v0h6v6h-6v0z"/></g><g><path fill="#fff" d="M21 19h6v6h-6z"/><path fill="#9e0a0e" fill-opacity=".2" d="M21 19h6v6h-6z"/><path fill="none" stroke="#9e0a0e" stroke-miterlimit="50" stroke-width="2" d="M21 19v0h6v6h-6v0z"/></g><g><path fill="#fff" d="M21 29h6v6h-6z"/><path fill="#9e0a0e" fill-opacity=".2" d="M21 29h6v6h-6z"/><path fill="none" stroke="#9e0a0e" stroke-miterlimit="50" stroke-width="2" d="M21 29v0h6v6h-6v0z"/></g><g><path fill="#fff" d="M21 39h6v6h-6z"/><path fill="#9e0a0e" fill-opacity=".2" d="M21 39h6v6h-6z"/><path fill="none" stroke="#9e0a0e" stroke-miterlimit="50" stroke-width="2" d="M21 39v0h6v6h-6v0z"/></g><g><path fill="#9e0a0e" d="M0 64h64v-2H0z"/></g><g><path fill="#fff" d="M9 51h18v12H9z"/><path fill="none" stroke="#9e0a0e" stroke-miterlimit="50" stroke-width="2" d="M9 51v0h18v12H9v0z"/></g><g><path fill="#fff" d="M9 51h9v12H9z"/><path fill="none" stroke="#9e0a0e" stroke-miterlimit="50" stroke-width="2" d="M9 51v0h9v12H9v0z"/></g></g></svg>