<svg xmlns="http://www.w3.org/2000/svg" width="64" height="64" viewBox="0 0 64 64"><g><g><path fill="none" stroke="#f77d80" stroke-miterlimit="50" stroke-width="2" d="M23.236 15.249a6 6 0 1 0-8.519-.046"/></g><g><path fill="none" stroke="#f77d80" stroke-miterlimit="50" stroke-width="2" d="M26.06 18.081A9.969 9.969 0 0 0 29 11c0-5.523-4.477-10-10-10S9 5.477 9 11a9.97 9.97 0 0 0 3.017 7.158"/></g><g><path fill="#fff" d="M27 36h30v27H27z"/><path fill="none" stroke="#9e0a0e" stroke-miterlimit="50" stroke-width="2" d="M27 36v0h30v27H27v0z"/></g><g><path fill="none" stroke="#9e0a0e" stroke-miterlimit="50" stroke-width="2" d="M33 33v0h18v3H33v0z"/></g><g><path fill="#fff" d="M33 41h6v6h-6z"/><path fill="#9e0a0e" fill-opacity=".2" d="M33 41h6v6h-6z"/><path fill="none" stroke="#9e0a0e" stroke-miterlimit="50" stroke-width="2" d="M33 41v0h6v6h-6v0z"/></g><g><path fill="#fff" d="M33 52h6v11h-6z"/><path fill="none" stroke="#9e0a0e" stroke-miterlimit="50" stroke-width="2" d="M33 52v0h6v11h-6v0z"/></g><g><path fill="#fff" d="M39 41h6v6h-6z"/><path fill="#9e0a0e" fill-opacity=".2" d="M39 41h6v6h-6z"/><path fill="none" stroke="#9e0a0e" stroke-miterlimit="50" stroke-width="2" d="M39 41v0h6v6h-6v0z"/></g><g><path fill="#fff" d="M39 52h6v6h-6z"/><path fill="#9e0a0e" fill-opacity=".2" d="M39 52h6v6h-6z"/><path fill="none" stroke="#9e0a0e" stroke-miterlimit="50" stroke-width="2" d="M39 52v0h6v6h-6v0z"/></g><g><path fill="#fff" d="M45 41h6v6h-6z"/><path fill="#9e0a0e" fill-opacity=".2" d="M45 41h6v6h-6z"/><path fill="none" stroke="#9e0a0e" stroke-miterlimit="50" stroke-width="2" d="M45 41v0h6v6h-6v0z"/></g><g><path fill="#fff" d="M45 52h6v6h-6z"/><path fill="#9e0a0e" fill-opacity=".2" d="M45 52h6v6h-6z"/><path fill="none" stroke="#9e0a0e" stroke-miterlimit="50" stroke-width="2" d="M45 52v0h6v6h-6v0z"/></g><g><path fill="none" stroke="#9e0a0e" stroke-miterlimit="50" stroke-width="2" d="M18.458 22v0L32 63v0H7v0z"/></g><g><path fill="none" stroke="#9e0a0e" stroke-miterlimit="50" stroke-width="2" d="M18.958 22v0L26 63v0H13v0z"/></g><g><path fill="#fff" d="M19 26a4 4 0 1 0 0-8 4 4 0 0 0 0 8z"/><path fill="#9e0a0e" fill-opacity=".2" d="M19 26a4 4 0 1 0 0-8 4 4 0 0 0 0 8z"/><path fill="none" stroke="#9e0a0e" stroke-miterlimit="50" stroke-width="2" d="M19 26a4 4 0 1 0 0-8 4 4 0 0 0 0 8z"/></g><g><path fill="#fff" d="M19 13a2 2 0 1 0 0-4 2 2 0 0 0 0 4z"/><path fill="#9e0a0e" fill-opacity=".2" d="M19 13a2 2 0 1 0 0-4 2 2 0 0 0 0 4z"/><path fill="none" stroke="#9e0a0e" stroke-miterlimit="50" stroke-width="2" d="M19 13a2 2 0 1 0 0-4 2 2 0 0 0 0 4z"/></g><g><path fill="#9e0a0e" d="M0 64h64v-2H0z"/></g><g><path fill="#9e0a0e" d="M18 12h2v6h-2z"/></g><g><path fill="none" stroke="#9e0a0e" stroke-miterlimit="50" stroke-width="2" d="M13 44l19 18"/></g><g><path fill="none" stroke="#9e0a0e" stroke-miterlimit="50" stroke-width="2" d="M25 44L8 62"/></g></g></svg>