<svg xmlns="http://www.w3.org/2000/svg" width="64" height="54" viewBox="0 0 64 54"><g><g><path fill="#9e0a0e" d="M0 54h64v-2H0z"/></g><g><path fill="#fff" d="M8 5h48v48H8z"/><path fill="none" stroke="#9e0a0e" stroke-miterlimit="50" stroke-width="2" d="M8 5v0h48v48H8v0z"/></g><g><path fill="#fff" d="M8 5h48V1H8z"/><path fill="none" stroke="#9e0a0e" stroke-miterlimit="50" stroke-width="2" d="M8 5v0h48v0-4 0H8v0z"/></g><g><path fill="#fff" d="M8 25h22v28H8z"/><path fill="none" stroke="#9e0a0e" stroke-miterlimit="50" stroke-width="2" d="M8 25v0h22v28H8v0z"/></g><g><path fill="#fff" d="M12 29h14v4H12z"/><path fill="none" stroke="#9e0a0e" stroke-miterlimit="50" stroke-width="2" d="M12 29v0h14v4H12v0z"/></g><g><path fill="#fff" d="M12 37h14v4H12z"/><path fill="none" stroke="#9e0a0e" stroke-miterlimit="50" stroke-width="2" d="M12 37v0h14v4H12v0z"/></g><g><path fill="#fff" d="M12 45h14v4H12z"/><path fill="none" stroke="#9e0a0e" stroke-miterlimit="50" stroke-width="2" d="M12 45v0h14v4H12v0z"/></g><g><path fill="#fff" d="M56 5H30v48h26z"/><path fill="none" stroke="#9e0a0e" stroke-miterlimit="50" stroke-width="2" d="M56 5v0H30v48h26v0z"/></g><g transform="rotate(-135 43 24.5)"><path fill="#fff" d="M37 26a6 6 0 1 1 12 0v6h-6a6 6 0 0 1-6-6z"/><path fill="#9e0a0e" fill-opacity=".2" d="M37 26a6 6 0 1 1 12 0v6h-6a6 6 0 0 1-6-6z"/><path fill="none" stroke="#9e0a0e" stroke-miterlimit="50" stroke-width="2" d="M37 26a6 6 0 0 1 6-6v0a6 6 0 0 1 6 6v6h-6a6 6 0 0 1-6-6z"/></g><g><path fill="#fff" d="M23 19a4 4 0 1 0 0-8 4 4 0 0 0 0 8z"/><path fill="#9e0a0e" fill-opacity=".2" d="M23 19a4 4 0 1 0 0-8 4 4 0 0 0 0 8z"/></g><g><path fill="#fff" d="M13 21a2 2 0 1 0 0-4 2 2 0 0 0 0 4z"/><path fill="#9e0a0e" fill-opacity=".2" d="M13 21a2 2 0 1 0 0-4 2 2 0 0 0 0 4z"/></g><g><path fill="#fff" d="M13 13a2 2 0 1 0 0-4 2 2 0 0 0 0 4z"/><path fill="#9e0a0e" fill-opacity=".2" d="M13 13a2 2 0 1 0 0-4 2 2 0 0 0 0 4z"/></g><g><path fill="#fff" d="M54 52c0-6.075-4.925-11-11-11s-11 4.925-11 11"/><path fill="none" stroke="#eccecf" stroke-miterlimit="50" stroke-width="2" d="M54 52c0-6.075-4.925-11-11-11s-11 4.925-11 11"/></g><g><path fill="#f77d80" d="M45 52a2 2 0 1 0-4 0"/></g><g><path fill="#fff" d="M42 39h2v3h-2z"/><path fill="#f77d80" d="M42 39h2v3h-2z"/></g><g transform="rotate(-45 36.5 42.5)"><path fill="#fff" d="M35.28 40.78h2v3h-2z"/><path fill="#f77d80" d="M35.28 40.78h2v3h-2z"/></g><g transform="rotate(-315 49.5 42.5)"><path fill="#fff" d="M48.72 40.78h2v3h-2z"/><path fill="#f77d80" d="M48.72 40.78h2v3h-2z"/></g><g transform="rotate(-345 43 49)"><path fill="#9e0a0e" d="M43.91 45.12l2 7h-4z"/></g></g></svg>