<svg xmlns="http://www.w3.org/2000/svg" width="120" height="120" viewBox="0 0 120 120"><g><g><g><path fill="#9e0a0e" d="M3.152 2.25C5.63.028 9.363.006 10.237.05L23.436.06c1.823 0 3.222 1.59 3.222 3.241 0 1.79-1.526 3.307-3.222 3.321 0 0-9.97-.014-13.2-.014-.098 0-1.437-.014-2.353.841-.607.56-1.069 1.664-1.04 2.438.034.922.425 1.797.931 2.32.78.808 1.833.976 2.463.976H23.3c2.412.08 3.335 2.15 3.285 3.277v13.116a3.292 3.292 0 0 1-3.285 3.277c-1.862 0-3.28-1.577-3.28-3.202v-9.077s.047-.837-.834-.837l-8.95.018c-1.152.018-5.006-.13-7.367-2.505C1.212 15.591-.012 13.516 0 9.888.016 6.08 1.86 3.415 3.152 2.25"/></g><g><path fill="#9e0a0e" d="M34.27 2.25C36.741.028 40.472.006 41.353.05L54.549.06c1.823 0 3.223 1.59 3.223 3.241 0 1.79-1.529 3.307-3.223 3.321 0 0-9.972-.014-13.195-.014-.107 0-1.44-.014-2.36.841-.6.56-1.068 1.664-1.036 2.438.03.922.427 1.797.93 2.32.778.808 1.835.976 2.466.976h13.06c2.412.08 3.34 2.15 3.283 3.277v13.116a3.291 3.291 0 0 1-3.283 3.277c-1.857 0-3.277-1.577-3.277-3.202v-9.077s.046-.837-.84-.837l-8.943.018c-1.156.018-5.011-.13-7.369-2.505-1.664-1.66-2.886-3.735-2.868-7.363.014-3.809 1.856-6.473 3.152-7.639"/></g><g><path fill="#9e0a0e" d="M54.62 55.372c-2.475 2.22-6.21 2.242-7.083 2.2l-13.203-.012c-1.823 0-3.217-1.59-3.217-3.241 0-1.79 1.525-3.307 3.217-3.32 0 0 9.974.013 13.203.013.099 0 1.436.014 2.351-.841.607-.561 1.071-1.664 1.043-2.436-.034-.924-.428-1.797-.932-2.324-.78-.806-1.833-.972-2.462-.972H34.473c-2.412-.08-3.336-2.151-3.287-3.279V28.044a3.294 3.294 0 0 1 3.287-3.28c1.861 0 3.279 1.58 3.279 3.207v9.075s-.046.835.837.835l8.948-.018c1.151-.016 5.007.131 7.367 2.509 1.657 1.657 2.88 3.733 2.867 7.363-.014 3.807-1.859 6.473-3.152 7.637"/></g><g><path fill="#9e0a0e" d="M23.502 55.372c-2.468 2.22-6.203 2.242-7.08 2.2L3.225 57.56C1.402 57.56 0 55.97 0 54.319c0-1.79 1.529-3.307 3.225-3.32 0 0 9.97.013 13.197.013.1 0 1.436.014 2.357-.841.6-.561 1.069-1.664 1.035-2.436-.028-.924-.428-1.797-.928-2.324-.778-.806-1.835-.972-2.464-.972H3.358C.95 44.36.02 42.288.075 41.16V28.044a3.294 3.294 0 0 1 3.283-3.28c1.86 0 3.277 1.58 3.277 3.207v9.075s-.045.835.839.835l8.948-.018c1.153-.016 5.01.131 7.369 2.509 1.66 1.657 2.883 3.733 2.867 7.363-.018 3.807-1.857 6.473-3.156 7.637"/></g><g><path fill="#9e0a0e" d="M116.753 2.21c-2.477-2.222-6.21-2.242-7.083-2.202l-13.2.014c-1.824 0-3.22 1.59-3.22 3.24 0 1.792 1.525 3.309 3.22 3.32 0 0 9.972-.011 13.2-.011.1 0 1.438-.017 2.354.84.605.56 1.069 1.664 1.042 2.437-.034.923-.427 1.796-.935 2.32-.779.81-1.831.975-2.46.975H96.605c-2.412.08-3.335 2.15-3.287 3.279v13.116a3.295 3.295 0 0 0 3.287 3.277c1.862 0 3.28-1.579 3.28-3.204v-9.077s-.045-.835.834-.835l8.95.02c1.152.014 5.006-.13 7.367-2.509 1.658-1.657 2.882-3.734 2.87-7.362-.016-3.808-1.863-6.474-3.154-7.638"/></g><g><path fill="#9e0a0e" d="M85.636 2.21C83.163-.012 79.432-.032 78.55.008L65.356.022c-1.823 0-3.223 1.59-3.223 3.24 0 1.792 1.527 3.309 3.223 3.32 0 0 9.973-.011 13.195-.011.103 0 1.438-.017 2.36.84.6.56 1.069 1.664 1.036 2.437-.03.923-.427 1.796-.93 2.32-.778.81-1.835.975-2.466.975H65.49c-2.408.08-3.337 2.15-3.28 3.279v13.116a3.29 3.29 0 0 0 3.28 3.277c1.86 0 3.28-1.579 3.28-3.204v-9.077s-.047-.835.834-.835l8.948.02c1.156.014 5.012-.13 7.367-2.509 1.666-1.657 2.888-3.734 2.87-7.362-.014-3.808-1.856-6.474-3.152-7.638"/></g><g><path fill="#9e0a0e" d="M65.286 55.331c2.474 2.223 6.209 2.245 7.082 2.202l13.201-.014c1.821 0 3.219-1.587 3.219-3.238 0-1.791-1.525-3.31-3.219-3.322 0 0-9.972.012-13.2.012-.1 0-1.437.016-2.352-.839-.607-.56-1.073-1.665-1.043-2.438.034-.921.428-1.797.932-2.321.78-.809 1.83-.974 2.462-.974H85.43c2.414-.08 3.34-2.15 3.287-3.28V28.004a3.294 3.294 0 0 0-3.287-3.279c-1.86 0-3.277 1.581-3.277 3.207v9.077s.048.835-.837.835l-8.948-.018c-1.151-.017-5.007.13-7.367 2.506-1.66 1.658-2.88 3.735-2.867 7.363.014 3.808 1.857 6.474 3.152 7.637"/></g><g><path fill="#9e0a0e" d="M96.385 55.331c2.468 2.223 6.203 2.245 7.082 2.202l13.195-.014c1.823 0 3.225-1.587 3.225-3.238 0-1.791-1.53-3.31-3.225-3.322 0 0-9.97.012-13.195.012-.105 0-1.438.016-2.357-.839-.601-.56-1.071-1.665-1.039-2.438.032-.921.43-1.797.93-2.321.78-.809 1.835-.974 2.466-.974h13.062c2.408-.08 3.338-2.15 3.283-3.28V28.004a3.296 3.296 0 0 0-3.283-3.279c-1.86 0-3.279 1.581-3.279 3.207v9.077s.049.835-.837.835l-8.946-.018c-1.155-.017-5.011.13-7.37 2.506-1.66 1.658-2.882 3.735-2.866 7.363.016 3.808 1.855 6.474 3.154 7.637"/></g><g><path fill="#9e0a0e" d="M3.233 117.527c2.476 2.219 6.211 2.24 7.084 2.196l13.2-.01c1.823 0 3.222-1.59 3.222-3.242 0-1.79-1.527-3.306-3.223-3.318 0 0-9.968.012-13.199.012-.098 0-1.438.012-2.353-.843-.607-.558-1.069-1.663-1.039-2.438.033-.921.424-1.795.93-2.319.78-.807 1.833-.972 2.462-.972h13.064c2.412-.083 3.336-2.152 3.285-3.277v-13.12a3.293 3.293 0 0 0-3.285-3.278c-1.861 0-3.277 1.58-3.277 3.207V99.2s.045.835-.837.835l-8.95-.016c-1.151-.02-5.003.129-7.367 2.504-1.657 1.658-2.881 3.735-2.87 7.361.019 3.812 1.864 6.476 3.153 7.643"/></g><g><path fill="#9e0a0e" d="M34.35 117.527c2.472 2.219 6.203 2.24 7.085 2.196l13.195-.01c1.823 0 3.222-1.59 3.222-3.242 0-1.79-1.528-3.306-3.222-3.318 0 0-9.973.012-13.195.012-.105 0-1.44.012-2.36-.843-.6-.558-1.069-1.663-1.036-2.438.03-.921.427-1.795.93-2.319.778-.807 1.834-.972 2.466-.972h13.062c2.41-.083 3.337-2.152 3.28-3.277v-13.12a3.292 3.292 0 0 0-3.28-3.278c-1.862 0-3.282 1.58-3.282 3.207V99.2s.049.835-.834.835l-8.946-.016c-1.156-.02-5.012.129-7.37 2.504-1.663 1.658-2.883 3.735-2.867 7.361.016 3.812 1.857 6.476 3.152 7.643"/></g><g><path fill="#9e0a0e" d="M54.7 64.403c-2.474-2.222-6.207-2.242-7.082-2.2l-13.202.012c-1.823 0-3.218 1.59-3.218 3.24 0 1.792 1.522 3.308 3.218 3.32 0 0 9.975-.012 13.202-.012.098 0 1.435-.014 2.353.841.605.559 1.067 1.664 1.04 2.436-.032.922-.427 1.797-.931 2.321-.783.811-1.833.976-2.462.976H34.554c-2.412.08-3.336 2.15-3.288 3.277v13.117a3.296 3.296 0 0 0 3.288 3.279c1.86 0 3.279-1.581 3.279-3.207v-9.077s-.047-.834.837-.834l8.948.018c1.151.016 5.007-.13 7.368-2.509 1.658-1.656 2.878-3.73 2.866-7.36-.014-3.808-1.86-6.474-3.152-7.638"/></g><g><path fill="#9e0a0e" d="M23.583 64.403c-2.468-2.222-6.203-2.242-7.08-2.2l-13.198.012c-1.823 0-3.224 1.59-3.224 3.24 0 1.792 1.528 3.308 3.224 3.32 0 0 9.973-.012 13.197-.012.101 0 1.438-.014 2.356.841.6.559 1.07 1.664 1.036 2.436-.028.922-.427 1.797-.927 2.321-.779.811-1.835.976-2.465.976H3.438c-2.405.08-3.335 2.15-3.283 3.277v13.117a3.296 3.296 0 0 0 3.283 3.279c1.86 0 3.277-1.581 3.277-3.207v-9.077s-.044-.834.84-.834l8.947.018c1.156.016 5.01-.13 7.37-2.509 1.659-1.656 2.883-3.73 2.867-7.36-.018-3.808-1.857-6.474-3.156-7.638"/></g><g><path fill="#9e0a0e" d="M116.836 117.564c-2.475 2.222-6.212 2.244-7.083 2.202l-13.203-.012c-1.823 0-3.219-1.59-3.219-3.241 0-1.79 1.525-3.305 3.219-3.322 0 0 9.972.017 13.203.017.099 0 1.436.012 2.351-.843.607-.559 1.07-1.664 1.041-2.439-.032-.921-.425-1.796-.934-2.319-.778-.808-1.833-.974-2.458-.974H96.687c-2.41-.082-3.336-2.15-3.287-3.28V90.235a3.295 3.295 0 0 1 3.287-3.277c1.861 0 3.28 1.58 3.28 3.206v9.075s-.045.835.836.835l8.95-.018c1.15-.016 5.005.133 7.365 2.509 1.658 1.657 2.882 3.732 2.87 7.36-.016 3.81-1.862 6.476-3.152 7.638"/></g><g><path fill="#9e0a0e" d="M85.716 117.564c-2.47 2.222-6.203 2.244-7.082 2.202l-13.197-.012c-1.821 0-3.223-1.59-3.223-3.241 0-1.79 1.527-3.305 3.223-3.322 0 0 9.972.017 13.197.017.103 0 1.438.012 2.357-.843.601-.559 1.07-1.664 1.037-2.439-.03-.921-.428-1.796-.928-2.319-.78-.808-1.835-.974-2.466-.974H65.572c-2.41-.082-3.34-2.15-3.283-3.28V90.235a3.293 3.293 0 0 1 3.283-3.277c1.857 0 3.277 1.58 3.277 3.206v9.075s-.046.835.839.835l8.946-.018c1.153-.016 5.011.133 7.369 2.509 1.661 1.657 2.884 3.732 2.867 7.36-.018 3.81-1.857 6.476-3.154 7.638"/></g><g><path fill="#9e0a0e" d="M65.366 64.443c2.477-2.22 6.21-2.24 7.085-2.2l13.199.014c1.823 0 3.22 1.587 3.22 3.238 0 1.791-1.526 3.31-3.22 3.32 0 0-9.972-.01-13.2-.01-.098 0-1.437-.016-2.353.839-.607.56-1.07 1.666-1.042 2.438.036.922.427 1.797.934 2.321.78.807 1.83.972 2.462.972h13.062c2.414.08 3.337 2.154 3.285 3.28V91.77a3.292 3.292 0 0 1-3.285 3.279c-1.862 0-3.28-1.581-3.28-3.207v-9.077s.05-.835-.834-.835l-8.948.02c-1.154.017-5.008-.129-7.371-2.508-1.656-1.656-2.878-3.735-2.866-7.361.014-3.81 1.858-6.474 3.152-7.64"/></g><g><path fill="#9e0a0e" d="M96.486 64.443c2.47-2.22 6.203-2.24 7.082-2.2l13.195.014c1.825 0 3.225 1.587 3.225 3.238 0 1.791-1.53 3.31-3.225 3.32 0 0-9.97-.01-13.195-.01-.105 0-1.438-.016-2.357.839-.601.56-1.071 1.666-1.037 2.438.028.922.428 1.797.93 2.321.778.807 1.835.972 2.464.972h13.062c2.41.08 3.338 2.154 3.283 3.28V91.77a3.294 3.294 0 0 1-3.283 3.279c-1.86 0-3.279-1.581-3.279-3.207v-9.077s.046-.835-.837-.835l-8.946.02c-1.157.017-5.011-.129-7.369-2.508-1.661-1.656-2.886-3.735-2.867-7.361.016-3.81 1.855-6.474 3.154-7.64"/></g></g></g></svg>