<svg xmlns="http://www.w3.org/2000/svg" width="26" height="32" viewBox="0 0 26 32"><g><g><path fill="#9e0a0e" d="M22.925 2.154C20.512-.013 16.87-.033 16.017.01L3.14.02C1.36.02 0 1.57 0 3.18c0 1.747 1.485 3.226 3.14 3.238 0 0 9.73-.012 12.877-.012.096 0 1.4-.014 2.295.82.59.545 1.04 1.622 1.015 2.375-.031.899-.417 1.753-.909 2.264-.763.79-1.788.952-2.401.952H3.273a3.225 3.225 0 0 0-3.206 3.195v12.79A3.215 3.215 0 0 0 3.273 32c1.816 0 3.199-1.542 3.199-3.127v-8.851s-.045-.814.816-.814l8.729.017c1.123.016 4.884-.125 7.188-2.446 1.617-1.614 2.807-3.638 2.795-7.178-.014-3.712-1.814-6.312-3.075-7.447"/></g></g></svg>