<svg xmlns="http://www.w3.org/2000/svg" width="128" height="128" viewBox="0 0 128 128"><g><g><path fill="none" stroke="#9e0a0e" stroke-miterlimit="50" stroke-width="4" d="M6 64v0h116v62H6v0z"/></g><g><path fill="none" stroke="#9e0a0e" stroke-miterlimit="50" stroke-width="4" d="M34 64v0h88v0-46 0l-88-8v0z"/></g><g><path fill="#fff" d="M34 56h80V16.815L34 10z"/><path fill="#9e0a0e" fill-opacity=".2" d="M34 56h80V16.815L34 10z"/><path fill="none" stroke="#9e0a0e" stroke-miterlimit="50" stroke-width="4" d="M34 56v0h80v0-39.185 0L34 10v0z"/></g><g><path fill="none" stroke="#9e0a0e" stroke-miterlimit="50" stroke-width="4" d="M6 64v0h66v0-20 0H6v0z"/></g><g><path fill="none" stroke="#9e0a0e" stroke-miterlimit="50" stroke-width="4" d="M34 64v0h38v0-20 0H34v0z"/></g><g><path fill="none" stroke="#9e0a0e" stroke-miterlimit="50" stroke-width="4" d="M14 100v0h56v0-24 0H14v0z"/></g><g><path fill="#fff" d="M70 100H50V76h20z"/><path fill="#9e0a0e" fill-opacity=".2" d="M70 100H50V76h20z"/><path fill="none" stroke="#9e0a0e" stroke-miterlimit="50" stroke-width="4" d="M70 100v0H50v0-24 0h20v0z"/></g><g><path fill="none" stroke="#9e0a0e" stroke-miterlimit="50" stroke-width="4" d="M80 76v0h34v50H80v0z"/></g><g><path fill="none" stroke="#9e0a0e" stroke-miterlimit="50" stroke-width="4" d="M98 2v0h24v24H98v0z"/></g><g><path fill="none" stroke="#9e0a0e" stroke-miterlimit="50" stroke-width="4" d="M106 2v0h8v8h-8v0z"/></g><g><path fill="none" stroke="#9e0a0e" stroke-miterlimit="50" stroke-width="4" d="M98 10v0h24v16H98v0z"/></g><g><path fill="#9e0a0e" d="M0 128h128v-4H0z"/></g><g><path fill="#fff" d="M80 118h34v8H80z"/><path fill="none" stroke="#9e0a0e" stroke-miterlimit="50" stroke-width="4" d="M80 118v0h34v8H80v0z"/></g><g><path fill="#fff" d="M2 6l124 12v12L2 18z"/><path fill="#9e0a0e" fill-opacity=".2" d="M2 6l124 12v12L2 18z"/><path fill="none" stroke="#9e0a0e" stroke-miterlimit="50" stroke-width="4" d="M2 6v0l124 12v12L2 18v0z"/></g></g></svg>