<svg xmlns="http://www.w3.org/2000/svg" width="128" height="128" viewBox="0 0 128 128"><g><g><path fill="#fff" d="M60 2h60v124H60z"/><path fill="none" stroke="#9e0a0e" stroke-miterlimit="50" stroke-width="4" d="M60 2v0h60v124H60v0z"/></g><g><g><path fill="#fff" d="M60 2h12v12H60z"/><path fill="#9e0a0e" fill-opacity=".2" d="M60 2h12v12H60z"/><path fill="none" stroke="#9e0a0e" stroke-miterlimit="50" stroke-width="4" d="M60 2v0h12v12H60v0z"/></g><g><path fill="#fff" d="M84 2h12v12H84z"/><path fill="#9e0a0e" fill-opacity=".2" d="M84 2h12v12H84z"/><path fill="none" stroke="#9e0a0e" stroke-miterlimit="50" stroke-width="4" d="M84 2v0h12v12H84v0z"/></g><g><path fill="#fff" d="M72 2h12v12H72z"/><path fill="#9e0a0e" fill-opacity=".2" d="M72 2h12v12H72z"/><path fill="none" stroke="#9e0a0e" stroke-miterlimit="50" stroke-width="4" d="M72 2v0h12v12H72v0z"/></g><g><path fill="#fff" d="M96 2h12v12H96z"/><path fill="#9e0a0e" fill-opacity=".2" d="M96 2h12v12H96z"/><path fill="none" stroke="#9e0a0e" stroke-miterlimit="50" stroke-width="4" d="M96 2v0h12v12H96v0z"/></g><g><path fill="#fff" d="M108 2h12v12h-12z"/><path fill="#9e0a0e" fill-opacity=".2" d="M108 2h12v12h-12z"/><path fill="none" stroke="#9e0a0e" stroke-miterlimit="50" stroke-width="4" d="M108 2v0h12v12h-12v0z"/></g></g><g><g><path fill="#fff" d="M60 26h12v12H60z"/><path fill="#9e0a0e" fill-opacity=".2" d="M60 26h12v12H60z"/><path fill="none" stroke="#9e0a0e" stroke-miterlimit="50" stroke-width="4" d="M60 26v0h12v12H60v0z"/></g><g><path fill="#fff" d="M84 26h12v12H84z"/><path fill="#9e0a0e" fill-opacity=".2" d="M84 26h12v12H84z"/><path fill="none" stroke="#9e0a0e" stroke-miterlimit="50" stroke-width="4" d="M84 26v0h12v12H84v0z"/></g><g><path fill="#fff" d="M72 26h12v12H72z"/><path fill="#9e0a0e" fill-opacity=".2" d="M72 26h12v12H72z"/><path fill="none" stroke="#9e0a0e" stroke-miterlimit="50" stroke-width="4" d="M72 26v0h12v12H72v0z"/></g><g><path fill="#fff" d="M96 26h12v12H96z"/><path fill="#9e0a0e" fill-opacity=".2" d="M96 26h12v12H96z"/><path fill="none" stroke="#9e0a0e" stroke-miterlimit="50" stroke-width="4" d="M96 26v0h12v12H96v0z"/></g><g><path fill="#fff" d="M108 26h12v12h-12z"/><path fill="#9e0a0e" fill-opacity=".2" d="M108 26h12v12h-12z"/><path fill="none" stroke="#9e0a0e" stroke-miterlimit="50" stroke-width="4" d="M108 26v0h12v12h-12v0z"/></g></g><g><g><path fill="#fff" d="M60 62h12v12H60z"/><path fill="#9e0a0e" fill-opacity=".2" d="M60 62h12v12H60z"/><path fill="none" stroke="#9e0a0e" stroke-miterlimit="50" stroke-width="4" d="M60 62v0h12v12H60v0z"/></g><g><path fill="#fff" d="M84 62h12v12H84z"/><path fill="#9e0a0e" fill-opacity=".2" d="M84 62h12v12H84z"/><path fill="none" stroke="#9e0a0e" stroke-miterlimit="50" stroke-width="4" d="M84 62v0h12v12H84v0z"/></g><g><path fill="#fff" d="M72 62h12v12H72z"/><path fill="#9e0a0e" fill-opacity=".2" d="M72 62h12v12H72z"/><path fill="none" stroke="#9e0a0e" stroke-miterlimit="50" stroke-width="4" d="M72 62v0h12v12H72v0z"/></g><g><path fill="#fff" d="M96 62h12v12H96z"/><path fill="#9e0a0e" fill-opacity=".2" d="M96 62h12v12H96z"/><path fill="none" stroke="#9e0a0e" stroke-miterlimit="50" stroke-width="4" d="M96 62v0h12v12H96v0z"/></g><g><path fill="#fff" d="M108 62h12v12h-12z"/><path fill="#9e0a0e" fill-opacity=".2" d="M108 62h12v12h-12z"/><path fill="none" stroke="#9e0a0e" stroke-miterlimit="50" stroke-width="4" d="M108 62v0h12v12h-12v0z"/></g></g><g><g><path fill="#fff" d="M60 14h12v12H60z"/><path fill="#9e0a0e" fill-opacity=".2" d="M60 14h12v12H60z"/><path fill="none" stroke="#9e0a0e" stroke-miterlimit="50" stroke-width="4" d="M60 14v0h12v12H60v0z"/></g><g><path fill="#fff" d="M84 14h12v12H84z"/><path fill="#9e0a0e" fill-opacity=".2" d="M84 14h12v12H84z"/><path fill="none" stroke="#9e0a0e" stroke-miterlimit="50" stroke-width="4" d="M84 14v0h12v12H84v0z"/></g><g><path fill="#fff" d="M72 14h12v12H72z"/><path fill="#9e0a0e" fill-opacity=".2" d="M72 14h12v12H72z"/><path fill="none" stroke="#9e0a0e" stroke-miterlimit="50" stroke-width="4" d="M72 14v0h12v12H72v0z"/></g><g><path fill="#fff" d="M96 14h12v12H96z"/><path fill="#9e0a0e" fill-opacity=".2" d="M96 14h12v12H96z"/><path fill="none" stroke="#9e0a0e" stroke-miterlimit="50" stroke-width="4" d="M96 14v0h12v12H96v0z"/></g><g><path fill="#fff" d="M108 14h12v12h-12z"/><path fill="#9e0a0e" fill-opacity=".2" d="M108 14h12v12h-12z"/><path fill="none" stroke="#9e0a0e" stroke-miterlimit="50" stroke-width="4" d="M108 14v0h12v12h-12v0z"/></g></g><g><g><path fill="#fff" d="M60 38h12v12H60z"/><path fill="#9e0a0e" fill-opacity=".2" d="M60 38h12v12H60z"/><path fill="none" stroke="#9e0a0e" stroke-miterlimit="50" stroke-width="4" d="M60 38v0h12v12H60v0z"/></g><g><path fill="#fff" d="M84 38h12v12H84z"/><path fill="#9e0a0e" fill-opacity=".2" d="M84 38h12v12H84z"/><path fill="none" stroke="#9e0a0e" stroke-miterlimit="50" stroke-width="4" d="M84 38v0h12v12H84v0z"/></g><g><path fill="#fff" d="M72 38h12v12H72z"/><path fill="#9e0a0e" fill-opacity=".2" d="M72 38h12v12H72z"/><path fill="none" stroke="#9e0a0e" stroke-miterlimit="50" stroke-width="4" d="M72 38v0h12v12H72v0z"/></g><g><path fill="#fff" d="M96 38h12v12H96z"/><path fill="#9e0a0e" fill-opacity=".2" d="M96 38h12v12H96z"/><path fill="none" stroke="#9e0a0e" stroke-miterlimit="50" stroke-width="4" d="M96 38v0h12v12H96v0z"/></g><g><path fill="#fff" d="M108 38h12v12h-12z"/><path fill="#9e0a0e" fill-opacity=".2" d="M108 38h12v12h-12z"/><path fill="none" stroke="#9e0a0e" stroke-miterlimit="50" stroke-width="4" d="M108 38v0h12v12h-12v0z"/></g></g><g><g><path fill="#fff" d="M60 38h12v12H60z"/><path fill="#9e0a0e" fill-opacity=".2" d="M60 38h12v12H60z"/><path fill="none" stroke="#9e0a0e" stroke-miterlimit="50" stroke-width="4" d="M60 38v0h12v12H60v0z"/></g><g><path fill="#fff" d="M84 38h12v12H84z"/><path fill="#9e0a0e" fill-opacity=".2" d="M84 38h12v12H84z"/><path fill="none" stroke="#9e0a0e" stroke-miterlimit="50" stroke-width="4" d="M84 38v0h12v12H84v0z"/></g><g><path fill="#fff" d="M72 38h12v12H72z"/><path fill="#9e0a0e" fill-opacity=".2" d="M72 38h12v12H72z"/><path fill="none" stroke="#9e0a0e" stroke-miterlimit="50" stroke-width="4" d="M72 38v0h12v12H72v0z"/></g><g><path fill="#fff" d="M96 38h12v12H96z"/><path fill="#9e0a0e" fill-opacity=".2" d="M96 38h12v12H96z"/><path fill="none" stroke="#9e0a0e" stroke-miterlimit="50" stroke-width="4" d="M96 38v0h12v12H96v0z"/></g><g><path fill="#fff" d="M108 38h12v12h-12z"/><path fill="#9e0a0e" fill-opacity=".2" d="M108 38h12v12h-12z"/><path fill="none" stroke="#9e0a0e" stroke-miterlimit="50" stroke-width="4" d="M108 38v0h12v12h-12v0z"/></g></g><g><g><path fill="#fff" d="M60 74h12v12H60z"/><path fill="#9e0a0e" fill-opacity=".2" d="M60 74h12v12H60z"/><path fill="none" stroke="#9e0a0e" stroke-miterlimit="50" stroke-width="4" d="M60 74v0h12v12H60v0z"/></g><g><path fill="#fff" d="M84 74h12v12H84z"/><path fill="#9e0a0e" fill-opacity=".2" d="M84 74h12v12H84z"/><path fill="none" stroke="#9e0a0e" stroke-miterlimit="50" stroke-width="4" d="M84 74v0h12v12H84v0z"/></g><g><path fill="#fff" d="M72 74h12v12H72z"/><path fill="#9e0a0e" fill-opacity=".2" d="M72 74h12v12H72z"/><path fill="none" stroke="#9e0a0e" stroke-miterlimit="50" stroke-width="4" d="M72 74v0h12v12H72v0z"/></g><g><path fill="#fff" d="M96 74h12v12H96z"/><path fill="#9e0a0e" fill-opacity=".2" d="M96 74h12v12H96z"/><path fill="none" stroke="#9e0a0e" stroke-miterlimit="50" stroke-width="4" d="M96 74v0h12v12H96v0z"/></g><g><path fill="#fff" d="M108 74h12v12h-12z"/><path fill="#9e0a0e" fill-opacity=".2" d="M108 74h12v12h-12z"/><path fill="none" stroke="#9e0a0e" stroke-miterlimit="50" stroke-width="4" d="M108 74v0h12v12h-12v0z"/></g></g><g><g><path fill="#fff" d="M60 50h12v12H60z"/><path fill="#9e0a0e" fill-opacity=".2" d="M60 50h12v12H60z"/><path fill="none" stroke="#9e0a0e" stroke-miterlimit="50" stroke-width="4" d="M60 50v0h12v12H60v0z"/></g><g><path fill="#fff" d="M84 50h12v12H84z"/><path fill="#9e0a0e" fill-opacity=".2" d="M84 50h12v12H84z"/><path fill="none" stroke="#9e0a0e" stroke-miterlimit="50" stroke-width="4" d="M84 50v0h12v12H84v0z"/></g><g><path fill="#fff" d="M72 50h12v12H72z"/><path fill="#9e0a0e" fill-opacity=".2" d="M72 50h12v12H72z"/><path fill="none" stroke="#9e0a0e" stroke-miterlimit="50" stroke-width="4" d="M72 50v0h12v12H72v0z"/></g><g><path fill="#fff" d="M96 50h12v12H96z"/><path fill="#9e0a0e" fill-opacity=".2" d="M96 50h12v12H96z"/><path fill="none" stroke="#9e0a0e" stroke-miterlimit="50" stroke-width="4" d="M96 50v0h12v12H96v0z"/></g><g><path fill="#fff" d="M108 50h12v12h-12z"/><path fill="#9e0a0e" fill-opacity=".2" d="M108 50h12v12h-12z"/><path fill="none" stroke="#9e0a0e" stroke-miterlimit="50" stroke-width="4" d="M108 50v0h12v12h-12v0z"/></g></g><g><path fill="#fff" d="M60 86h12v12H60z"/><path fill="#9e0a0e" fill-opacity=".2" d="M60 86h12v12H60z"/><path fill="none" stroke="#9e0a0e" stroke-miterlimit="50" stroke-width="4" d="M60 86v0h12v12H60v0z"/></g><g><path fill="#fff" d="M84 86h12v12H84z"/><path fill="#9e0a0e" fill-opacity=".2" d="M84 86h12v12H84z"/><path fill="none" stroke="#9e0a0e" stroke-miterlimit="50" stroke-width="4" d="M84 86v0h12v12H84v0z"/></g><g><path fill="#fff" d="M60 98h30v28H60z"/><path fill="#9e0a0e" fill-opacity=".2" d="M60 98h30v28H60z"/><path fill="none" stroke="#9e0a0e" stroke-miterlimit="50" stroke-width="4" d="M60 98v0h30v28H60v0z"/></g><g><path fill="#fff" d="M90 98h30v28H90z"/><path fill="#9e0a0e" fill-opacity=".2" d="M90 98h30v28H90z"/><path fill="none" stroke="#9e0a0e" stroke-miterlimit="50" stroke-width="4" d="M90 98v0h30v28H90v0z"/></g><g><path fill="#fff" d="M72 86h12v12H72z"/><path fill="#9e0a0e" fill-opacity=".2" d="M72 86h12v12H72z"/><path fill="none" stroke="#9e0a0e" stroke-miterlimit="50" stroke-width="4" d="M72 86v0h12v12H72v0z"/></g><g><path fill="#fff" d="M96 86h12v12H96z"/><path fill="#9e0a0e" fill-opacity=".2" d="M96 86h12v12H96z"/><path fill="none" stroke="#9e0a0e" stroke-miterlimit="50" stroke-width="4" d="M96 86v0h12v12H96v0z"/></g><g><path fill="#fff" d="M108 86h12v12h-12z"/><path fill="#9e0a0e" fill-opacity=".2" d="M108 86h12v12h-12z"/><path fill="none" stroke="#9e0a0e" stroke-miterlimit="50" stroke-width="4" d="M108 86v0h12v12h-12v0z"/></g><g><path fill="#fff" d="M6 26h60v100H6z"/><path fill="none" stroke="#9e0a0e" stroke-miterlimit="50" stroke-width="4" d="M6 26v0h60v100H6v0z"/></g><g><path fill="none" stroke="#9e0a0e" stroke-miterlimit="50" stroke-width="4" d="M18 14v0h12v12H18v0z"/></g><g><path fill="#fff" d="M18 18h12v-8H18z"/><path fill="none" stroke="#9e0a0e" stroke-miterlimit="50" stroke-width="4" d="M18 18v0h12v0-8 0H18v0z"/></g><g><path fill="#fff" d="M38 26h4v-4h-4z"/><path fill="none" stroke="#9e0a0e" stroke-miterlimit="50" stroke-width="4" d="M38 26v0h4v0-4 0h-4v0z"/></g><g><path fill="#fff" d="M50 26h4v-4h-4z"/><path fill="none" stroke="#9e0a0e" stroke-miterlimit="50" stroke-width="4" d="M50 26v0h4v0-4 0h-4v0z"/></g><g><path fill="#fff" d="M18 38h12v12H18z"/><path fill="#9e0a0e" fill-opacity=".2" d="M18 38h12v12H18z"/><path fill="none" stroke="#9e0a0e" stroke-miterlimit="50" stroke-width="4" d="M18 38v0h12v12H18v0z"/></g><g><path fill="#fff" d="M18 58h12v12H18z"/><path fill="#9e0a0e" fill-opacity=".2" d="M18 58h12v12H18z"/><path fill="none" stroke="#9e0a0e" stroke-miterlimit="50" stroke-width="4" d="M18 58v0h12v12H18v0z"/></g><g><path fill="#fff" d="M18 78h12v12H18z"/><path fill="#9e0a0e" fill-opacity=".2" d="M18 78h12v12H18z"/><path fill="none" stroke="#9e0a0e" stroke-miterlimit="50" stroke-width="4" d="M18 78v0h12v12H18v0z"/></g><g><path fill="#fff" d="M30 38h12v12H30z"/><path fill="#9e0a0e" fill-opacity=".2" d="M30 38h12v12H30z"/><path fill="none" stroke="#9e0a0e" stroke-miterlimit="50" stroke-width="4" d="M30 38v0h12v12H30v0z"/></g><g><path fill="#fff" d="M30 58h12v12H30z"/><path fill="#9e0a0e" fill-opacity=".2" d="M30 58h12v12H30z"/><path fill="none" stroke="#9e0a0e" stroke-miterlimit="50" stroke-width="4" d="M30 58v0h12v12H30v0z"/></g><g><path fill="#fff" d="M30 78h12v12H30z"/><path fill="#9e0a0e" fill-opacity=".2" d="M30 78h12v12H30z"/><path fill="none" stroke="#9e0a0e" stroke-miterlimit="50" stroke-width="4" d="M30 78v0h12v12H30v0z"/></g><g><path fill="#fff" d="M42 38h12v12H42z"/><path fill="#9e0a0e" fill-opacity=".2" d="M42 38h12v12H42z"/><path fill="none" stroke="#9e0a0e" stroke-miterlimit="50" stroke-width="4" d="M42 38v0h12v12H42v0z"/></g><g><path fill="#fff" d="M42 58h12v12H42z"/><path fill="#9e0a0e" fill-opacity=".2" d="M42 58h12v12H42z"/><path fill="none" stroke="#9e0a0e" stroke-miterlimit="50" stroke-width="4" d="M42 58v0h12v12H42v0z"/></g><g><path fill="#fff" d="M42 78h12v12H42z"/><path fill="#9e0a0e" fill-opacity=".2" d="M42 78h12v12H42z"/><path fill="none" stroke="#9e0a0e" stroke-miterlimit="50" stroke-width="4" d="M42 78v0h12v12H42v0z"/></g><g><path fill="#9e0a0e" d="M0 128h128v-4H0z"/></g><g><path fill="#fff" d="M18 102h36v24H18z"/><path fill="none" stroke="#9e0a0e" stroke-miterlimit="50" stroke-width="4" d="M18 102v0h36v24H18v0z"/></g><g><path fill="#fff" d="M18 102h18v24H18z"/><path fill="none" stroke="#9e0a0e" stroke-miterlimit="50" stroke-width="4" d="M18 102v0h18v24H18v0z"/></g></g></svg>